<svg xmlns="http://www.w3.org/2000/svg" viewBox="0 0 426.93 70.87"><title>WeasyPrint - Logotype</title><g id="Home_-_1" data-name="Home - 1"><g id="Logo"><path d="M12.93,37.88.59,25.54A1.71,1.71,0,0,1,0,24.36a1.66,1.66,0,0,1,.66-1.19l1.52-1.32a2,2,0,0,1,1.12-.53,1.71,1.71,0,0,1,1.19.6L16.17,33.53a11.39,11.39,0,0,1,1.71,2.11,4.24,4.24,0,0,1,.6,2.24,4.11,4.11,0,0,1-.6,2.18,11.39,11.39,0,0,1-1.71,2.11L4.49,53.85a1.67,1.67,0,0,1-1.19.53,1.65,1.65,0,0,1-1.12-.46L.66,52.53A1.64,1.64,0,0,1,0,51.34a1.39,1.39,0,0,1,.59-1.12Z" style="fill:#1ee494"/><path d="M58.67,54.71H57.61a4,4,0,0,1-3.89-2.38L44.81,34.52l-8.9,17.81A4,4,0,0,1,32,54.71H31a1.6,1.6,0,0,1-1.79-1.65l-1.31-30a1.38,1.38,0,0,1,.46-1.22,1.76,1.76,0,0,1,1.25-.49h2.24a1.5,1.5,0,0,1,1.16.46,2.05,2.05,0,0,1,.49,1.25l1.19,20.72L42,29.17A1.9,1.9,0,0,1,43.89,28h1.85a1.91,1.91,0,0,1,1.91,1.18L55,43.82,56.16,23.1a2.06,2.06,0,0,1,.5-1.25,1.48,1.48,0,0,1,1.15-.46h2.24a1.69,1.69,0,0,1,1.72,1.71l-1.32,30C60.45,54.16,59.86,54.71,58.67,54.71Z" style="fill:#f6f6f6"/><path d="M96.71,51.67a1.41,1.41,0,0,1-1.06,1.39,24.82,24.82,0,0,1-9.89,2,16.34,16.34,0,0,1-11.49-4.19q-4.55-4.18-4.55-13a21.35,21.35,0,0,1,1.85-9.23,13.88,13.88,0,0,1,5-5.91,12.35,12.35,0,0,1,6.86-2,12.51,12.51,0,0,1,6.43,1.75,12.74,12.74,0,0,1,4.82,5.11,16.59,16.59,0,0,1,1.82,8v1.52a1.46,1.46,0,0,1-1.65,1.65H75.4c.13,3.87,1.19,6.7,3.2,8.48A10.75,10.75,0,0,0,86,49.89a23.22,23.22,0,0,0,7.72-1.52,1.8,1.8,0,0,1,.73-.13,1.41,1.41,0,0,1,1.38,1.06l.66,1.58A1.81,1.81,0,0,1,96.71,51.67ZM78.43,27.85a8.76,8.76,0,0,0-2.57,5.81h15a7.88,7.88,0,0,0-1.13-4.29,7.53,7.53,0,0,0-2.8-2.7,7.08,7.08,0,0,0-3.46-.93A7.19,7.19,0,0,0,78.43,27.85Z" style="fill:#f6f6f6"/><path d="M129.52,54.25A93.68,93.68,0,0,1,118.9,55a19.39,19.39,0,0,1-7.42-1.29,10.63,10.63,0,0,1-4.72-3.46,7.89,7.89,0,0,1,0-9.5,10.83,10.83,0,0,1,4.75-3.5A19.68,19.68,0,0,1,119.1,36h6.4V33.33q0-4.16-2.18-5.9t-6.47-1.75a30.83,30.83,0,0,0-6,.66,1.88,1.88,0,0,1-.53.06,1.32,1.32,0,0,1-1.45-1.25l-.2-1.78V23a1.55,1.55,0,0,1,.3-1,1.63,1.63,0,0,1,1-.5,41.73,41.73,0,0,1,8.18-.85q6.39,0,9.7,3t3.3,9.7V52.47A1.62,1.62,0,0,1,129.52,54.25ZM113,42.37a3.79,3.79,0,0,0-2.14,3.23A3.7,3.7,0,0,0,113,48.8a12.41,12.41,0,0,0,6.26,1.29c1.24,0,3.3-.13,6.21-.4V41.05h-6.4A11.72,11.72,0,0,0,113,42.37Z" style="fill:#f6f6f6"/><path d="M161.21,26.34a40.05,40.05,0,0,0-5.94-.6,12.72,12.72,0,0,0-5.54,1.09,3.36,3.36,0,0,0-2.24,3.07,3.77,3.77,0,0,0,1.78,3,10.39,10.39,0,0,0,4.95,1.71q5.86.74,8.74,3.43a8.83,8.83,0,0,1,2.87,6.67,9,9,0,0,1-3.63,7.45Q158.57,55,152,55a55,55,0,0,1-8.9-.73c-.93-.13-1.39-.61-1.39-1.45a1.58,1.58,0,0,1,.07-.53l.39-1.71a1.51,1.51,0,0,1,1.92-1.32A46.48,46.48,0,0,0,152,50a10.92,10.92,0,0,0,6.11-1.45,4.37,4.37,0,0,0,2.14-3.76,4.22,4.22,0,0,0-1.61-3.3,9,9,0,0,0-5.05-1.72A14.73,14.73,0,0,1,145,36.46a8.44,8.44,0,0,1-3.1-6.56,8,8,0,0,1,3.36-6.6q3.38-2.57,9.37-2.57a42.77,42.77,0,0,1,7.79.72,1.36,1.36,0,0,1,1.32,1.46,1.48,1.48,0,0,1-.07.52l-.46,1.72A1.54,1.54,0,0,1,161.21,26.34Z" style="fill:#f6f6f6"/><path d="M203,21.75a1.22,1.22,0,0,1,.4,1,1.58,1.58,0,0,1-.07.53L195.16,55.7c-1.36,5.36-3.17,9.24-5.41,11.61a11.9,11.9,0,0,1-9.1,3.56,24.36,24.36,0,0,1-8.05-1.58,1.47,1.47,0,0,1-1.13-1.45,4,4,0,0,1,.14-.66l.59-1.65a1.42,1.42,0,0,1,1.39-1.12,1.6,1.6,0,0,1,.72.13,18.56,18.56,0,0,0,3.27.83,20.38,20.38,0,0,0,3.07.29,6.88,6.88,0,0,0,5.54-2.51q2.12-2.51,3.49-8.11h-.85a8.77,8.77,0,0,1-5.31-1.52,7.44,7.44,0,0,1-2.81-4.42l-6.46-25.86a1.58,1.58,0,0,1-.07-.53c0-.88.5-1.32,1.52-1.32h2.37a1.59,1.59,0,0,1,1.78,1.38l6.4,25.47a2.47,2.47,0,0,0,.86,1.45,2.62,2.62,0,0,0,1.72.53h2l6.86-27.45a1.75,1.75,0,0,1,1.85-1.38H202A1.49,1.49,0,0,1,203,21.75Z" style="fill:#f6f6f6"/><path d="M213.5,22.64a26.18,26.18,0,0,1,9.83-1.91,16.3,16.3,0,0,1,11.48,4.19q4.56,4.18,4.56,13t-4.56,13A16.3,16.3,0,0,1,223.33,55a26,26,0,0,1-5.08-.53V69.22a1.46,1.46,0,0,1-1.65,1.65h-2.31a1.46,1.46,0,0,1-1.65-1.65V24A1.42,1.42,0,0,1,213.5,22.64Zm9.17,27.52a11.32,11.32,0,0,0,8-2.81q3-2.81,3-9.47,0-6.33-2.8-9.17a10.15,10.15,0,0,0-7.56-2.83,22.33,22.33,0,0,0-5.08.59V49.69A24.68,24.68,0,0,0,222.67,50.16Z" style="fill:#f6f6f6"/><path d="M250.83,21.52a75.41,75.41,0,0,1,11.22-.79,25.7,25.7,0,0,1,8.21,1.05,8,8,0,0,1,4.39,3.37A12.2,12.2,0,0,1,276,31.42a1.46,1.46,0,0,1-1.65,1.65h-2.3a1.46,1.46,0,0,1-1.65-1.65q0-3.11-1.92-4.39c-1.27-.86-3.43-1.29-6.46-1.29q-3.17,0-7.13.27V52.73a1.46,1.46,0,0,1-1.65,1.65H251a1.46,1.46,0,0,1-1.65-1.65V23.3A1.69,1.69,0,0,1,250.83,21.52Z" style="fill:#f6f6f6"/><path d="M308.91,51v1.78a1.46,1.46,0,0,1-1.65,1.65H283.84a1.46,1.46,0,0,1-1.65-1.65V51a1.46,1.46,0,0,1,1.65-1.65h8.91V26.4H286a1.46,1.46,0,0,1-1.65-1.65V23A1.46,1.46,0,0,1,286,21.39h10.69A1.46,1.46,0,0,1,298.36,23V49.3h8.9A1.46,1.46,0,0,1,308.91,51ZM298.36,5.88v4.36a1.46,1.46,0,0,1-1.65,1.65h-4.29a1.46,1.46,0,0,1-1.65-1.65V5.88a1.46,1.46,0,0,1,1.65-1.65h4.29A1.46,1.46,0,0,1,298.36,5.88Z" style="fill:#f6f6f6"/><path d="M319.2,21.52a75.18,75.18,0,0,1,11.21-.79q7.39,0,10.69,3.07t3.3,10.26V52.73a1.46,1.46,0,0,1-1.65,1.65h-2.31a1.46,1.46,0,0,1-1.65-1.65V34.06q0-4.62-1.91-6.47c-1.28-1.23-3.43-1.85-6.47-1.85q-3.17,0-7.12.27V52.73a1.46,1.46,0,0,1-1.65,1.65h-2.31a1.46,1.46,0,0,1-1.65-1.65V23.3A1.68,1.68,0,0,1,319.2,21.52Z" style="fill:#f6f6f6"/><path d="M379.86,52.4c0,.62-.37,1.06-1.12,1.32A20.27,20.27,0,0,1,371.81,55a11.66,11.66,0,0,1-8.64-3.37q-3.37-3.36-3.37-10.75V26.4h-5a1.46,1.46,0,0,1-1.65-1.65V23a1.46,1.46,0,0,1,1.65-1.65h5V12.48a1.46,1.46,0,0,1,1.65-1.65h2.31a1.46,1.46,0,0,1,1.65,1.65v8.91h10.82A1.46,1.46,0,0,1,377.88,23v1.71a1.46,1.46,0,0,1-1.65,1.65H365.41V40.92q0,5,1.65,7a5.83,5.83,0,0,0,4.75,2,14.14,14.14,0,0,0,4.95-.92,1.79,1.79,0,0,1,.79-.13,1.49,1.49,0,0,1,1.39,1l.72,1.72A1.78,1.78,0,0,1,379.86,52.4Z" style="fill:#f6f6f6"/><rect x="389.25" width="37.68" height="70.69" rx="2.02" ry="2.02" style="fill:#1ee494"/></g></g></svg>