<svg xmlns="http://www.w3.org/2000/svg" viewBox="0 0 205 34.03"><title>WeasyPrint - Logotype-black</title><g id="Why_donate_" data-name="Why donate ?"><g id="Logo"><path d="M6.21,18.19.29,12.27A.79.79,0,0,1,0,11.7a.8.8,0,0,1,.32-.57l.73-.64a.92.92,0,0,1,.53-.25.81.81,0,0,1,.57.28L7.76,16.1a5.7,5.7,0,0,1,.83,1,2.07,2.07,0,0,1,.28,1.08,2,2,0,0,1-.28,1,5.7,5.7,0,0,1-.83,1L2.15,25.86a.77.77,0,0,1-.57.25.76.76,0,0,1-.53-.22l-.73-.67A.8.8,0,0,1,0,24.65a.62.62,0,0,1,.29-.53Z" style="fill:#1ee494"/><path d="M28.17,26.27h-.51a1.91,1.91,0,0,1-1.87-1.14l-4.27-8.56-4.28,8.56a1.9,1.9,0,0,1-1.87,1.14h-.51a.76.76,0,0,1-.85-.79l-.63-14.39a.65.65,0,0,1,.22-.58.85.85,0,0,1,.6-.24h1.08a.71.71,0,0,1,.55.22,1,1,0,0,1,.24.6l.57,10,3.52-7a.9.9,0,0,1,.91-.57H22a.93.93,0,0,1,.92.57l3.52,7L27,11.09a1,1,0,0,1,.23-.6.73.73,0,0,1,.56-.22h1.08a.82.82,0,0,1,.82.82L29,25.48C29,26,28.74,26.27,28.17,26.27Z" style="fill:#14213d"/><path d="M46.44,24.81a.68.68,0,0,1-.51.67,12,12,0,0,1-4.75.95,7.85,7.85,0,0,1-5.52-2q-2.17-2-2.18-6.23a10.09,10.09,0,0,1,.89-4.43,6.65,6.65,0,0,1,2.37-2.84A6,6,0,0,1,40,10a6,6,0,0,1,5.4,3.3,8,8,0,0,1,.87,3.83v.73a.7.7,0,0,1-.79.79H36.2a5.47,5.47,0,0,0,1.54,4.07A5.15,5.15,0,0,0,41.3,24,11.4,11.4,0,0,0,45,23.23a.83.83,0,0,1,.35-.07.68.68,0,0,1,.67.51l.31.76A.8.8,0,0,1,46.44,24.81ZM37.66,13.37a4.16,4.16,0,0,0-1.23,2.79h7.19a3.79,3.79,0,0,0-.54-2.06,3.72,3.72,0,0,0-1.35-1.3,3.37,3.37,0,0,0-4.07.57Z" style="fill:#14213d"/><path d="M62.19,26.05a45,45,0,0,1-5.1.38,9.37,9.37,0,0,1-3.56-.62,5.14,5.14,0,0,1-2.27-1.66,3.82,3.82,0,0,1,0-4.57,5.26,5.26,0,0,1,2.28-1.67,9.35,9.35,0,0,1,3.65-.64h3.07V16a3.42,3.42,0,0,0-1-2.83,4.86,4.86,0,0,0-3.1-.84,14.82,14.82,0,0,0-2.88.32.93.93,0,0,1-.26,0,.63.63,0,0,1-.69-.6l-.1-.86V11a.79.79,0,0,1,.14-.49.75.75,0,0,1,.46-.24,20.52,20.52,0,0,1,3.93-.41,6.67,6.67,0,0,1,4.66,1.46C62.43,12.32,63,13.87,63,16v9.19A.78.78,0,0,1,62.19,26.05Zm-7.93-5.7a1.81,1.81,0,0,0-1,1.55,1.77,1.77,0,0,0,1,1.53,5.9,5.9,0,0,0,3,.62c.59,0,1.59-.06,3-.19V19.71H57.19A5.52,5.52,0,0,0,54.26,20.35Z" style="fill:#14213d"/><path d="M77.41,12.65a19.69,19.69,0,0,0-2.85-.29,6.15,6.15,0,0,0-2.66.52,1.62,1.62,0,0,0-1.08,1.48,1.78,1.78,0,0,0,.85,1.45,5,5,0,0,0,2.38.83,7.27,7.27,0,0,1,4.2,1.65,4.21,4.21,0,0,1,1.38,3.2,4.32,4.32,0,0,1-1.75,3.58A7.84,7.84,0,0,1,73,26.43a26.92,26.92,0,0,1-4.27-.35.66.66,0,0,1-.67-.7.85.85,0,0,1,0-.25l.19-.82a.73.73,0,0,1,.92-.64A22.48,22.48,0,0,0,73,24a5.14,5.14,0,0,0,2.93-.7,2.08,2.08,0,0,0,1-1.8,2,2,0,0,0-.77-1.59,4.35,4.35,0,0,0-2.43-.82,7,7,0,0,1-4.11-1.57,4.05,4.05,0,0,1-1.49-3.15,3.8,3.8,0,0,1,1.61-3.17A7.29,7.29,0,0,1,74.24,10,20.58,20.58,0,0,1,78,10.3a.65.65,0,0,1,.63.7.85.85,0,0,1,0,.25l-.22.83A.74.74,0,0,1,77.41,12.65Z" style="fill:#14213d"/><path d="M97.48,10.44a.59.59,0,0,1,.19.46.93.93,0,0,1,0,.26L93.71,26.75a12.62,12.62,0,0,1-2.6,5.57A5.71,5.71,0,0,1,86.74,34a11.63,11.63,0,0,1-3.86-.76.7.7,0,0,1-.54-.7,2,2,0,0,1,.06-.31l.29-.79a.67.67,0,0,1,.66-.54.85.85,0,0,1,.35.06,9,9,0,0,0,1.57.4,9.94,9.94,0,0,0,1.47.14,3.28,3.28,0,0,0,2.66-1.21,9.68,9.68,0,0,0,1.68-3.89h-.41a4.17,4.17,0,0,1-2.55-.73,3.57,3.57,0,0,1-1.35-2.12l-3.1-12.42a.93.93,0,0,1,0-.26q0-.63.72-.63h1.15a.76.76,0,0,1,.85.67l3.07,12.22a1.17,1.17,0,0,0,.42.7,1.26,1.26,0,0,0,.82.26h1L95,10.94a.83.83,0,0,1,.88-.67H97A.75.75,0,0,1,97.48,10.44Z" style="fill:#14213d"/><path d="M102.52,10.87a12.55,12.55,0,0,1,4.72-.92,7.79,7.79,0,0,1,5.51,2q2.19,2,2.19,6.22t-2.19,6.23a7.82,7.82,0,0,1-5.51,2,12.36,12.36,0,0,1-2.44-.26v7.07A.7.7,0,0,1,104,34H102.9a.7.7,0,0,1-.79-.79V11.54A.67.67,0,0,1,102.52,10.87Zm4.4,13.21a5.41,5.41,0,0,0,3.83-1.34c1-.9,1.46-2.42,1.46-4.55a6.11,6.11,0,0,0-1.34-4.4,4.88,4.88,0,0,0-3.63-1.37,10.77,10.77,0,0,0-2.44.29V23.86A11.65,11.65,0,0,0,106.92,24.08Z" style="fill:#14213d"/><path d="M120.44,10.33a36.87,36.87,0,0,1,5.39-.38,12.17,12.17,0,0,1,3.94.51,3.87,3.87,0,0,1,2.11,1.62,5.87,5.87,0,0,1,.66,3,.7.7,0,0,1-.79.79h-1.11a.7.7,0,0,1-.79-.79,2.35,2.35,0,0,0-.92-2.11,5.81,5.81,0,0,0-3.1-.62c-1,0-2.16,0-3.42.13V25.32a.7.7,0,0,1-.8.79H120.5a.7.7,0,0,1-.79-.79V11.19A.81.81,0,0,1,120.44,10.33Z" style="fill:#14213d"/><path d="M148.33,24.46v.86a.7.7,0,0,1-.79.79H136.29a.7.7,0,0,1-.79-.79v-.86a.7.7,0,0,1,.79-.79h4.28v-11h-3.23a.7.7,0,0,1-.79-.79v-.83a.7.7,0,0,1,.79-.79h5.13a.7.7,0,0,1,.79.79V23.67h4.28A.7.7,0,0,1,148.33,24.46ZM143.26,2.82v2.1a.7.7,0,0,1-.79.79h-2.06a.7.7,0,0,1-.79-.79V2.82a.7.7,0,0,1,.79-.79h2.06A.7.7,0,0,1,143.26,2.82Z" style="fill:#14213d"/><path d="M153.27,10.33a36.73,36.73,0,0,1,5.38-.38q3.56,0,5.14,1.48t1.58,4.92v9a.7.7,0,0,1-.79.79h-1.11a.7.7,0,0,1-.79-.79v-9a4.24,4.24,0,0,0-.92-3.1,4.41,4.41,0,0,0-3.11-.89c-1,0-2.15,0-3.42.13V25.32a.7.7,0,0,1-.79.79h-1.11a.7.7,0,0,1-.79-.79V11.19A.81.81,0,0,1,153.27,10.33Z" style="fill:#14213d"/><path d="M182.4,25.16q0,.45-.54.63a9.56,9.56,0,0,1-3.33.64,5.61,5.61,0,0,1-4.15-1.62c-1.07-1.07-1.61-2.8-1.61-5.16v-7h-2.41a.7.7,0,0,1-.79-.79v-.83a.7.7,0,0,1,.79-.79h2.41V6a.7.7,0,0,1,.79-.79h1.11a.7.7,0,0,1,.79.79v4.28h5.2a.7.7,0,0,1,.79.79v.83a.7.7,0,0,1-.79.79h-5.2v7a5.38,5.38,0,0,0,.79,3.36,2.82,2.82,0,0,0,2.28.95,6.77,6.77,0,0,0,2.38-.45.91.91,0,0,1,.38-.06A.71.71,0,0,1,182,24l.35.82A.77.77,0,0,1,182.4,25.16Z" style="fill:#14213d"/><rect x="186.91" width="18.09" height="33.94" rx="2.02" ry="2.02" style="fill:#1ee494"/></g></g></svg>