<svg id="About" xmlns="http://www.w3.org/2000/svg" viewBox="0 0 70.93 70.69"><title>logo-picto</title><g id="Logo"><path d="M12.93,37.88.59,25.54A1.71,1.71,0,0,1,0,24.36a1.66,1.66,0,0,1,.66-1.19l1.52-1.32a2,2,0,0,1,1.12-.53,1.71,1.71,0,0,1,1.19.6L16.17,33.53a11.39,11.39,0,0,1,1.71,2.11,4.24,4.24,0,0,1,.6,2.24,4.11,4.11,0,0,1-.6,2.18,11.39,11.39,0,0,1-1.71,2.11L4.49,53.85a1.67,1.67,0,0,1-1.19.53,1.65,1.65,0,0,1-1.12-.46L.66,52.53A1.64,1.64,0,0,1,0,51.34a1.39,1.39,0,0,1,.59-1.12Z" style="fill:#1ee494"/><rect x="33.25" width="37.68" height="70.69" rx="2.02" ry="2.02" style="fill:#1ee494"/></g></svg>