<svg id="Calque_1" data-name="Calque 1" xmlns="http://www.w3.org/2000/svg" viewBox="0 0 48 48"><title>menu-picto-08-1</title><g style="isolation:isolate"><path d="M17.27,28.41a1.88,1.88,0,0,1,.36,1.29v3.51a.24.24,0,0,1-.27.27H17a.24.24,0,0,1-.26-.27V29.72a1,1,0,0,0-.19-.68.78.78,0,0,0-.62-.2l-.47,0a2.82,2.82,0,0,1,.1.85v3.49c0,.18-.08.27-.26.27H14.9a.24.24,0,0,1-.27-.27V29.72a1,1,0,0,0-.18-.68.78.78,0,0,0-.62-.2,2.36,2.36,0,0,0-.37,0v4.35a.24.24,0,0,1-.27.27h-.37a.24.24,0,0,1-.27-.27V28.45a.27.27,0,0,1,.24-.29A7.52,7.52,0,0,1,14,28a1.7,1.7,0,0,1,1,.26A2.52,2.52,0,0,1,16.17,28,1.4,1.4,0,0,1,17.27,28.41Z" style="fill:#14213d"/><path d="M23.48,33a.21.21,0,0,1-.17.22,4,4,0,0,1-1.61.33,2.65,2.65,0,0,1-1.87-.69,2.73,2.73,0,0,1-.74-2.11,3.46,3.46,0,0,1,.3-1.5,2.27,2.27,0,0,1,.81-1A2,2,0,0,1,21.31,28a2,2,0,0,1,1.05.29,2,2,0,0,1,.79.83,2.77,2.77,0,0,1,.29,1.3v.24a.24.24,0,0,1-.27.27H20a1.91,1.91,0,0,0,.52,1.38,1.77,1.77,0,0,0,1.21.44A3.7,3.7,0,0,0,23,32.5l.12,0a.22.22,0,0,1,.22.17l.11.26A.31.31,0,0,1,23.48,33Zm-3-3.88a1.36,1.36,0,0,0-.42.95h2.44a1.2,1.2,0,0,0-.19-.7,1.18,1.18,0,0,0-.45-.44,1.16,1.16,0,0,0-.57-.15A1.14,1.14,0,0,0,20.51,29.16Z" style="fill:#14213d"/><path d="M25.51,28.13A11.94,11.94,0,0,1,27.34,28a2.53,2.53,0,0,1,1.74.5,2.19,2.19,0,0,1,.54,1.67v3a.24.24,0,0,1-.27.27H29a.24.24,0,0,1-.27-.27v-3a1.42,1.42,0,0,0-.31-1.05,1.5,1.5,0,0,0-1.05-.3c-.34,0-.73,0-1.16,0v4.35a.24.24,0,0,1-.27.27h-.37a.24.24,0,0,1-.27-.27V28.42A.27.27,0,0,1,25.51,28.13Z" style="fill:#14213d"/><path d="M35.55,33.46a13.24,13.24,0,0,1-1.83.13,2.53,2.53,0,0,1-1.74-.5,2.2,2.2,0,0,1-.54-1.67v-3a.24.24,0,0,1,.27-.27h.38a.24.24,0,0,1,.27.27v3a1.42,1.42,0,0,0,.31,1,1.5,1.5,0,0,0,1,.3c.34,0,.73,0,1.16,0V28.38a.24.24,0,0,1,.27-.27h.38a.24.24,0,0,1,.26.27v4.79A.28.28,0,0,1,35.55,33.46Z" style="fill:#14213d"/></g><line x1="12" y1="16" x2="36" y2="16" style="fill:none;stroke:#14213d;stroke-miterlimit:10"/><rect x="12" y="22" width="24" height="1" style="fill:#14213d"/></svg>