<svg xmlns="http://www.w3.org/2000/svg" viewBox="0 0 20 20"><title>contact-picot-12</title><g id="Home_-_1" data-name="Home - 1"><path d="M4.19,14.59H3.32l.41-2.95H2.37L2,14.59H1.1l.4-2.95H0v-.79H1.61l.2-1.48H.28V8.56H1.92l.37-2.85h.9L2.78,8.56H4.15l.38-2.85H5.4L5,8.56h1.5v.81H4.91L4.7,10.85H6.22v.79H4.59Zm-.35-3.74L4,9.37H2.67l-.19,1.48Z" style="fill:#6f7a89"/><path d="M9.41,6.41a.72.72,0,0,1-.74.74.67.67,0,0,1-.52-.22.69.69,0,0,1-.22-.52.71.71,0,0,1,.22-.53.67.67,0,0,1,.52-.22.75.75,0,0,1,.74.75Zm-.22,8.12h-1V9.17s0-.07,0-.18-.05-.22-.07-.34a1.21,1.21,0,0,1,0-.2H9.19Z" style="fill:#6f7a89"/><path d="M12.23,14.53h-1v-4.4a3,3,0,0,0-.39-1.66l1.1-.13a4,4,0,0,1,.28,1.14,2.47,2.47,0,0,1,.87-.83,2.18,2.18,0,0,1,1.12-.31L14,9.42a2.06,2.06,0,0,0-1.72,1.07Z" style="fill:#6f7a89"/><path d="M19.32,13.3l.46.78a5.6,5.6,0,0,1-1,.47,3.35,3.35,0,0,1-1,.14,2.41,2.41,0,0,1-2-1A3.46,3.46,0,0,1,15,11.49a3.35,3.35,0,0,1,.77-2.28,2.66,2.66,0,0,1,2.14-.91,2.86,2.86,0,0,1,1.76.63l-.55.71a2.34,2.34,0,0,0-.65-.43,2.1,2.1,0,0,0-.72-.11,1.36,1.36,0,0,0-1.23.72,3,3,0,0,0-.44,1.56,3.72,3.72,0,0,0,.17,1.1,2.39,2.39,0,0,0,.57.95,1.38,1.38,0,0,0,1,.41,2,2,0,0,0,.74-.12A3.68,3.68,0,0,0,19.32,13.3Z" style="fill:#6f7a89"/></g></svg>