<svg xmlns="http://www.w3.org/2000/svg" viewBox="0 0 20 20"><title>contact-picot</title><g id="Home_-_1" data-name="Home - 1"><path d="M19,5.06A7.42,7.42,0,0,1,17.3,6.83c0,.1,0,.25,0,.44a9.63,9.63,0,0,1-.4,2.75,9.88,9.88,0,0,1-1.23,2.64,10.12,10.12,0,0,1-1.95,2.23A8.82,8.82,0,0,1,11,16.43,9.91,9.91,0,0,1,7.58,17a9.46,9.46,0,0,1-5.26-1.54,6.86,6.86,0,0,0,.83,0A6.69,6.69,0,0,0,7.4,14.05a3.4,3.4,0,0,1-3.2-2.37,3.73,3.73,0,0,0,.64.05,3.36,3.36,0,0,0,.9-.11,3.37,3.37,0,0,1-2-1.18A3.31,3.31,0,0,1,3,8.26v0a3.37,3.37,0,0,0,1.55.43A3.41,3.41,0,0,1,3.49,4.08,9.59,9.59,0,0,0,6.61,6.6a9.51,9.51,0,0,0,3.93,1.06,4.32,4.32,0,0,1-.08-.79,3.3,3.3,0,0,1,1-2.42,3.43,3.43,0,0,1,4.92.08,6.8,6.8,0,0,0,2.17-.82,3.3,3.3,0,0,1-1.5,1.88A7,7,0,0,0,19,5.06Z" style="fill:#6f7a89"/></g></svg>