<svg version="1.1" xmlns="http://www.w3.org/2000/svg" viewBox="0 0 1200 1200">
<path fill="#6f7a89" d="M232.7,336.1v632.2H22.1V336.1H232.7z M246.1,140.8c0.4,31.1-10.3,57-32.2,77.8c-21.9,20.8-50.7,31.3-86.5,31.3h-1.3c-34.9,0-62.9-10.4-84.2-31.3C20.6,197.8,10,171.9,10,140.8c0-31.5,11-57.5,32.9-78.2c21.9-20.6,50.5-31,85.8-30.9c35.3,0,63.6,10.3,84.8,30.9C234.8,83.3,245.6,109.3,246.1,140.8z M990,605.9v362.4H780.1V630.2c0-44.7-8.6-79.6-25.8-105c-17.2-25.3-44.1-38-80.7-38c-26.8,0-49.2,7.3-67.3,22c-18.1,14.7-31.6,32.9-40.5,54.6c-4.7,12.8-7,30-7,51.7v352.8H348.8c0.9-169.7,1.3-307.3,1.3-412.8c0-105.5-0.2-168.4-0.6-188.8l-0.6-30.6h209.9v91.9h-1.3c8.5-13.6,17.2-25.5,26.2-35.7c8.9-10.2,20.9-21.3,36-33.2c15.1-11.9,33.6-21.2,55.5-27.8s46.3-9.9,73.1-9.9c72.7,0,131.2,24.1,175.4,72.4C967.9,442,990,512.7,990,605.9L990,605.9z"/>
</svg>
