<svg xmlns="http://www.w3.org/2000/svg" viewBox="0 0 20 20"><title>contact-picot</title><g id="Home_-_1" data-name="Home - 1"><path d="M18.73,10.26a8.75,8.75,0,0,1-6,8.32.49.49,0,0,1-.45-.08.43.43,0,0,1-.15-.34V15.75a2,2,0,0,0-.59-1.62,7.48,7.48,0,0,0,1.17-.2,4.38,4.38,0,0,0,1.07-.45,3.16,3.16,0,0,0,.93-.76,3.54,3.54,0,0,0,.6-1.2,5.56,5.56,0,0,0,.24-1.71,3.28,3.28,0,0,0-.91-2.35,3,3,0,0,0-.09-2.33,1.48,1.48,0,0,0-.92.12,6.42,6.42,0,0,0-1.05.51L12.15,6A7.93,7.93,0,0,0,10,5.73,8,8,0,0,0,7.77,6l-.48-.31a6.94,6.94,0,0,0-1-.44,1.62,1.62,0,0,0-1-.15,3.1,3.1,0,0,0-.08,2.33,3.32,3.32,0,0,0-.9,2.35,5.61,5.61,0,0,0,.24,1.71,3.55,3.55,0,0,0,.6,1.2,3.08,3.08,0,0,0,.91.76,4.44,4.44,0,0,0,1.08.45,7.09,7.09,0,0,0,1.17.2,1.86,1.86,0,0,0-.56,1.18,2.64,2.64,0,0,1-.52.17,3.06,3.06,0,0,1-.65.06,1.34,1.34,0,0,1-.74-.25,2,2,0,0,1-.64-.71,1.87,1.87,0,0,0-.55-.6,1.67,1.67,0,0,0-.57-.27l-.22,0a.73.73,0,0,0-.34.05.09.09,0,0,0-.05.13.47.47,0,0,0,.1.16l.15.14.08.05a1.41,1.41,0,0,1,.5.44,2.48,2.48,0,0,1,.35.58l.12.26a1.48,1.48,0,0,0,.5.7,1.66,1.66,0,0,0,.77.34,4.32,4.32,0,0,0,.79.08,2.94,2.94,0,0,0,.63,0l.26,0c0,.29,0,.63,0,1s0,.6,0,.62a.43.43,0,0,1-.15.34.51.51,0,0,1-.46.08,8.75,8.75,0,0,1-6-8.32,8.54,8.54,0,0,1,1.18-4.4A8.66,8.66,0,0,1,5.56,2.68,8.54,8.54,0,0,1,10,1.5a8.51,8.51,0,0,1,4.4,1.18,8.61,8.61,0,0,1,3.19,3.18A8.54,8.54,0,0,1,18.73,10.26Z" style="fill:#6f7a89"/></g></svg>