<svg xmlns="http://www.w3.org/2000/svg" viewBox="0 0 20 20"><title>contact-picot</title><g id="Home_-_1" data-name="Home - 1"><polygon points="18.14 1.39 14.06 1.39 14.06 2.07 18.14 2.07 18.14 18.24 14.06 18.24 14.06 18.92 18.14 18.92 18.82 18.92 18.82 18.24 18.82 2.07 18.82 1.39 18.14 1.39" style="fill:#6f7a89"/><path d="M10,7.16l2.64,6.29-2.33-1.18L10,12.12l-.3.15L7.37,13.45,10,7.16M10,5.4,6,14.9l4-2,4,2L10,5.4Z" style="fill:#6f7a89"/><polygon points="6.05 18.24 1.97 18.24 1.97 2.07 6.05 2.07 6.05 1.39 1.97 1.39 1.29 1.39 1.29 2.07 1.29 18.24 1.29 18.92 1.97 18.92 6.05 18.92 6.05 18.24" style="fill:#6f7a89"/></g></svg>