<?xml version="1.0" encoding="utf-8"?>
<!-- Generator: Adobe Illustrator 22.1.0, SVG Export Plug-In . SVG Version: 6.00 Build 0)  -->
<svg version="1.1" id="Calque_1" xmlns="http://www.w3.org/2000/svg" xmlns:xlink="http://www.w3.org/1999/xlink" x="0px" y="0px"
	 viewBox="0 0 56.7 56.7" style="enable-background:new 0 0 56.7 56.7;" xml:space="preserve">
<style type="text/css">
	.st0{fill:none;stroke:#231F20;stroke-linecap:round;stroke-linejoin:round;stroke-miterlimit:10;}
</style>
<rect x="12.4" y="6.1" class="st0" width="31.9" height="44.5"/>
<line class="st0" x1="16.4" y1="13.8" x2="26.8" y2="13.8"/>
<g>
	<rect x="-85.5" y="-13" class="st0" width="31.9" height="44.5"/>
	<line class="st0" x1="-81.4" y1="-6.3" x2="-71.1" y2="-6.3"/>
	<line class="st0" x1="-81.4" y1="-0.1" x2="-71.1" y2="-0.1"/>
	<line class="st0" x1="-81.4" y1="6.1" x2="-71.1" y2="6.1"/>
	<line class="st0" x1="-81.4" y1="12.3" x2="-71.1" y2="12.3"/>
	<line class="st0" x1="-81.4" y1="18.6" x2="-71.1" y2="18.6"/>
	<line class="st0" x1="-81.4" y1="24.8" x2="-71.1" y2="24.8"/>
	<line class="st0" x1="-60.8" y1="-6.3" x2="-57.6" y2="-6.3"/>
	<line class="st0" x1="-60.8" y1="-0.1" x2="-57.6" y2="-0.1"/>
	<line class="st0" x1="-60.8" y1="6.1" x2="-57.6" y2="6.1"/>
	<line class="st0" x1="-60.8" y1="12.3" x2="-57.6" y2="12.3"/>
	<line class="st0" x1="-60.8" y1="18.6" x2="-57.6" y2="18.6"/>
	<line class="st0" x1="-60.8" y1="24.8" x2="-57.6" y2="24.8"/>
</g>
<line class="st0" x1="16.4" y1="20.9" x2="26.8" y2="20.9"/>
<line class="st0" x1="16.4" y1="28" x2="26.8" y2="28"/>
<line class="st0" x1="16.4" y1="35" x2="26.8" y2="35"/>
<line class="st0" x1="16.4" y1="42.1" x2="26.8" y2="42.1"/>
<g>
	<path d="M38.1,12.5c0.2,0,0.3,0.1,0.4,0.2v1.2c0,0.2,0,0.3,0.1,0.4s0.1,0.1,0.2,0.1c0.1,0,0.2-0.1,0.3-0.2c0.1-0.2,0.1-0.4,0.1-0.8
		c0-0.4-0.1-0.8-0.4-1c-0.3-0.2-0.6-0.4-1.1-0.4c-0.3,0-0.7,0.1-0.9,0.2c-0.3,0.1-0.4,0.4-0.6,0.6c-0.1,0.3-0.2,0.6-0.2,0.9
		c0,0.5,0.1,1,0.4,1.3s0.7,0.5,1.2,0.5c0.2,0,0.3,0,0.5,0c0.2,0,0.3-0.1,0.5-0.1l0.2,0.5c-0.2,0.1-0.3,0.1-0.6,0.2
		c-0.2,0-0.4,0.1-0.6,0.1c-0.5,0-0.9-0.1-1.3-0.3c-0.4-0.2-0.6-0.5-0.8-0.8c-0.2-0.3-0.3-0.8-0.3-1.2c0-0.4,0.1-0.8,0.3-1.2
		s0.5-0.6,0.9-0.8s0.8-0.3,1.2-0.3c0.5,0,0.9,0.1,1.2,0.3s0.6,0.4,0.8,0.7c0.2,0.3,0.3,0.6,0.3,1c0,0.3,0,0.6-0.1,0.8
		c-0.1,0.2-0.2,0.4-0.4,0.6c-0.2,0.1-0.4,0.2-0.6,0.2c-0.2,0-0.3-0.1-0.5-0.2s-0.2-0.2-0.2-0.4c-0.1,0.2-0.2,0.3-0.3,0.4
		c-0.1,0.1-0.3,0.1-0.4,0.1c-0.3,0-0.5-0.1-0.7-0.3s-0.2-0.5-0.2-0.8c0-0.4,0.1-0.7,0.3-1c0.2-0.2,0.5-0.4,0.9-0.4
		C37.9,12.5,38,12.5,38.1,12.5z M37.8,14.4c0.1,0,0.1-0.1,0.1-0.2V13c-0.1,0-0.2,0-0.2,0c-0.1,0-0.2,0.1-0.3,0.2s-0.1,0.4-0.1,0.7
		c0,0.2,0,0.4,0.1,0.5c0,0.1,0.1,0.1,0.2,0.1C37.6,14.5,37.7,14.4,37.8,14.4z"/>
</g>
<g>
	<path d="M38.1,19.6c0.2,0,0.3,0.1,0.4,0.2V21c0,0.2,0,0.3,0.1,0.4s0.1,0.1,0.2,0.1c0.1,0,0.2-0.1,0.3-0.2c0.1-0.2,0.1-0.4,0.1-0.8
		c0-0.4-0.1-0.8-0.4-1c-0.3-0.2-0.6-0.4-1.1-0.4c-0.3,0-0.7,0.1-0.9,0.2c-0.3,0.1-0.4,0.4-0.6,0.6c-0.1,0.3-0.2,0.6-0.2,0.9
		c0,0.5,0.1,1,0.4,1.3s0.7,0.5,1.2,0.5c0.2,0,0.3,0,0.5,0c0.2,0,0.3-0.1,0.5-0.1l0.2,0.5c-0.2,0.1-0.3,0.1-0.6,0.2
		c-0.2,0-0.4,0.1-0.6,0.1c-0.5,0-0.9-0.1-1.3-0.3c-0.4-0.2-0.6-0.5-0.8-0.8c-0.2-0.3-0.3-0.8-0.3-1.2c0-0.4,0.1-0.8,0.3-1.2
		s0.5-0.6,0.9-0.8s0.8-0.3,1.2-0.3c0.5,0,0.9,0.1,1.2,0.3s0.6,0.4,0.8,0.7c0.2,0.3,0.3,0.6,0.3,1c0,0.3,0,0.6-0.1,0.8
		c-0.1,0.2-0.2,0.4-0.4,0.6c-0.2,0.1-0.4,0.2-0.6,0.2c-0.2,0-0.3-0.1-0.5-0.2s-0.2-0.2-0.2-0.4c-0.1,0.2-0.2,0.3-0.3,0.4
		c-0.1,0.1-0.3,0.1-0.4,0.1c-0.3,0-0.5-0.1-0.7-0.3s-0.2-0.5-0.2-0.8c0-0.4,0.1-0.7,0.3-1c0.2-0.2,0.5-0.4,0.9-0.4
		C37.9,19.6,38,19.6,38.1,19.6z M37.8,21.5c0.1,0,0.1-0.1,0.1-0.2v-1.2c-0.1,0-0.2,0-0.2,0c-0.1,0-0.2,0.1-0.3,0.2s-0.1,0.4-0.1,0.7
		c0,0.2,0,0.4,0.1,0.5c0,0.1,0.1,0.1,0.2,0.1C37.6,21.6,37.7,21.5,37.8,21.5z"/>
</g>
<g>
	<path d="M38.1,26.7c0.2,0,0.3,0.1,0.4,0.2v1.2c0,0.2,0,0.3,0.1,0.4s0.1,0.1,0.2,0.1c0.1,0,0.2-0.1,0.3-0.2c0.1-0.2,0.1-0.4,0.1-0.8
		c0-0.4-0.1-0.8-0.4-1c-0.3-0.2-0.6-0.4-1.1-0.4c-0.3,0-0.7,0.1-0.9,0.2c-0.3,0.1-0.4,0.4-0.6,0.6C36.1,27.3,36,27.6,36,28
		c0,0.5,0.1,1,0.4,1.3s0.7,0.5,1.2,0.5c0.2,0,0.3,0,0.5,0c0.2,0,0.3-0.1,0.5-0.1l0.2,0.5c-0.2,0.1-0.3,0.1-0.6,0.2
		c-0.2,0-0.4,0.1-0.6,0.1c-0.5,0-0.9-0.1-1.3-0.3c-0.4-0.2-0.6-0.5-0.8-0.8c-0.2-0.3-0.3-0.8-0.3-1.2c0-0.4,0.1-0.8,0.3-1.2
		s0.5-0.6,0.9-0.8s0.8-0.3,1.2-0.3c0.5,0,0.9,0.1,1.2,0.3s0.6,0.4,0.8,0.7c0.2,0.3,0.3,0.6,0.3,1c0,0.3,0,0.6-0.1,0.8
		c-0.1,0.2-0.2,0.4-0.4,0.6c-0.2,0.1-0.4,0.2-0.6,0.2c-0.2,0-0.3-0.1-0.5-0.2s-0.2-0.2-0.2-0.4c-0.1,0.2-0.2,0.3-0.3,0.4
		c-0.1,0.1-0.3,0.1-0.4,0.1c-0.3,0-0.5-0.1-0.7-0.3s-0.2-0.5-0.2-0.8c0-0.4,0.1-0.7,0.3-1c0.2-0.2,0.5-0.4,0.9-0.4
		C37.9,26.7,38,26.7,38.1,26.7z M37.8,28.6c0.1,0,0.1-0.1,0.1-0.2v-1.2c-0.1,0-0.2,0-0.2,0c-0.1,0-0.2,0.1-0.3,0.2s-0.1,0.4-0.1,0.7
		c0,0.2,0,0.4,0.1,0.5c0,0.1,0.1,0.1,0.2,0.1C37.6,28.6,37.7,28.6,37.8,28.6z"/>
</g>
<g>
	<path d="M38.1,33.8c0.2,0,0.3,0.1,0.4,0.2v1.2c0,0.2,0,0.3,0.1,0.4s0.1,0.1,0.2,0.1c0.1,0,0.2-0.1,0.3-0.2c0.1-0.2,0.1-0.4,0.1-0.8
		c0-0.4-0.1-0.8-0.4-1c-0.3-0.2-0.6-0.4-1.1-0.4c-0.3,0-0.7,0.1-0.9,0.2c-0.3,0.1-0.4,0.4-0.6,0.6c-0.1,0.3-0.2,0.6-0.2,0.9
		c0,0.5,0.1,1,0.4,1.3s0.7,0.5,1.2,0.5c0.2,0,0.3,0,0.5,0c0.2,0,0.3-0.1,0.5-0.1l0.2,0.5c-0.2,0.1-0.3,0.1-0.6,0.2
		c-0.2,0-0.4,0.1-0.6,0.1c-0.5,0-0.9-0.1-1.3-0.3c-0.4-0.2-0.6-0.5-0.8-0.8c-0.2-0.3-0.3-0.8-0.3-1.2c0-0.4,0.1-0.8,0.3-1.2
		s0.5-0.6,0.9-0.8s0.8-0.3,1.2-0.3c0.5,0,0.9,0.1,1.2,0.3s0.6,0.4,0.8,0.7c0.2,0.3,0.3,0.6,0.3,1c0,0.3,0,0.6-0.1,0.8
		c-0.1,0.2-0.2,0.4-0.4,0.6c-0.2,0.1-0.4,0.2-0.6,0.2c-0.2,0-0.3-0.1-0.5-0.2s-0.2-0.2-0.2-0.4c-0.1,0.2-0.2,0.3-0.3,0.4
		c-0.1,0.1-0.3,0.1-0.4,0.1c-0.3,0-0.5-0.1-0.7-0.3s-0.2-0.5-0.2-0.8c0-0.4,0.1-0.7,0.3-1c0.2-0.2,0.5-0.4,0.9-0.4
		C37.9,33.7,38,33.8,38.1,33.8z M37.8,35.7c0.1,0,0.1-0.1,0.1-0.2v-1.2c-0.1,0-0.2,0-0.2,0c-0.1,0-0.2,0.1-0.3,0.2s-0.1,0.4-0.1,0.7
		c0,0.2,0,0.4,0.1,0.5c0,0.1,0.1,0.1,0.2,0.1C37.6,35.7,37.7,35.7,37.8,35.7z"/>
</g>
<g>
	<path d="M38.1,40.9c0.2,0,0.3,0.1,0.4,0.2v1.2c0,0.2,0,0.3,0.1,0.4s0.1,0.1,0.2,0.1c0.1,0,0.2-0.1,0.3-0.2c0.1-0.2,0.1-0.4,0.1-0.8
		c0-0.4-0.1-0.8-0.4-1c-0.3-0.2-0.6-0.4-1.1-0.4c-0.3,0-0.7,0.1-0.9,0.2c-0.3,0.1-0.4,0.4-0.6,0.6c-0.1,0.3-0.2,0.6-0.2,0.9
		c0,0.5,0.1,1,0.4,1.3s0.7,0.5,1.2,0.5c0.2,0,0.3,0,0.5,0c0.2,0,0.3-0.1,0.5-0.1l0.2,0.5c-0.2,0.1-0.3,0.1-0.6,0.2
		c-0.2,0-0.4,0.1-0.6,0.1c-0.5,0-0.9-0.1-1.3-0.3c-0.4-0.2-0.6-0.5-0.8-0.8c-0.2-0.3-0.3-0.8-0.3-1.2c0-0.4,0.1-0.8,0.3-1.2
		s0.5-0.6,0.9-0.8s0.8-0.3,1.2-0.3c0.5,0,0.9,0.1,1.2,0.3s0.6,0.4,0.8,0.7c0.2,0.3,0.3,0.6,0.3,1c0,0.3,0,0.6-0.1,0.8
		c-0.1,0.2-0.2,0.4-0.4,0.6c-0.2,0.1-0.4,0.2-0.6,0.2c-0.2,0-0.3-0.1-0.5-0.2s-0.2-0.2-0.2-0.4c-0.1,0.2-0.2,0.3-0.3,0.4
		c-0.1,0.1-0.3,0.1-0.4,0.1c-0.3,0-0.5-0.1-0.7-0.3s-0.2-0.5-0.2-0.8c0-0.4,0.1-0.7,0.3-1c0.2-0.2,0.5-0.4,0.9-0.4
		C37.9,40.8,38,40.9,38.1,40.9z M37.8,42.7c0.1,0,0.1-0.1,0.1-0.2v-1.2c-0.1,0-0.2,0-0.2,0c-0.1,0-0.2,0.1-0.3,0.2s-0.1,0.4-0.1,0.7
		c0,0.2,0,0.4,0.1,0.5c0,0.1,0.1,0.1,0.2,0.1C37.6,42.8,37.7,42.8,37.8,42.7z"/>
</g>
</svg>
