<svg id="Layer_1" data-name="Layer 1" xmlns="http://www.w3.org/2000/svg" viewBox="0 0 602.28 113.46" width="602.28" height="113.46"><path d="M9.26,58.05C9.26,32.48,25.63,12,54.6,12A45.84,45.84,0,0,1,90.25,29.21l-13.1,11C71.35,33.11,63.8,28.83,54.6,28.83c-15.24,0-26.83,11.34-26.83,29.22,0,16.63,11.09,28.6,27.09,28.6C64.17,86.65,72,82,77.4,75.31l13,11.21A44.7,44.7,0,0,1,54.86,103.4C29.91,103.4,9.26,87.53,9.26,58.05Z"/><path d="M94.82,71.78C94.82,53.39,107.93,40,127.58,40c19.14,0,32.62,12.85,32.62,31.74s-13.48,31.87-32.62,31.87C107.93,103.65,94.82,90.17,94.82,71.78Zm48.63,0c0-10.07-6.81-17-15.87-17-9.58,0-16,7.3-16,17s6.55,17,16,17C136.39,88.79,143.45,81.86,143.45,71.78Z"/><path d="M165.53,71.91c0-18.64,12.59-31.87,29.09-31.87,7.56,0,14.11,2.77,18.64,8.06h.26V9.81h16.37v92.71H214.15V95H214c-4.28,5.54-10.7,8.69-19,8.69C178,103.65,165.53,90.93,165.53,71.91Zm48.62.13c0-10-6.68-17.26-16.13-17.26-8.81,0-15.74,6.68-15.74,17.26,0,9.82,6.55,16.75,15.74,16.75S214.15,82.11,214.15,72Z"/><path d="M298.23,77.07H255c2,7.44,7.94,11.84,16.25,11.84a18.39,18.39,0,0,0,15-6.93l10.7,10c-5.16,6.67-13.09,11.71-26.83,11.71-18.89,0-32.24-12.72-32.24-32,0-18.77,13-31.62,31.24-31.62,17.38,0,29.47,13.1,29.47,31.11C298.6,73.17,298.35,76.07,298.23,77.07ZM255.15,65.23h27.08C280.59,58.68,276.18,54.4,269,54.4,262.32,54.4,257,58.18,255.15,65.23Z"/><path d="M322,71.27c1.62-9.64,7.92-16.62,15.61-21.28v-.25l-4.93-6.38a15.2,15.2,0,0,1-1.81-15.76A27.14,27.14,0,0,1,356,12c16.21,0,24.14,9.73,28.36,18a.44.44,0,0,1-.24.62l-12.9,4.85a.45.45,0,0,1-.55-.2c-2.38-4.43-5.91-8.86-13-8.86-6.61,0-10.05,3.82-11.44,7.69a3.39,3.39,0,0,0,.52,3.22l27.67,35.45h.38A33.35,33.35,0,0,0,377.65,60a.44.44,0,0,1,.43-.43l14.61-.24a.45.45,0,0,1,.46.45c-.07,8.46-2.24,18.33-7.81,26.62v.38l11.67,15a.45.45,0,0,1-.36.72H379a.47.47,0,0,1-.35-.18l-4.65-6h-.38c-6.07,5-13.79,7.54-24,7.29C332.54,103.22,319.18,88.1,322,71.27Zm42.81,13.49v-.25L347,61.88a.46.46,0,0,0-.58-.11c-5.56,3.16-8.22,8.23-8.22,13.41,0,7.94,6,13.23,14.48,13.23A20.92,20.92,0,0,0,364.81,84.76Z"/><path d="M416.35,57.93c0-25.57,16.37-46.1,45.35-46.1a45.87,45.87,0,0,1,35.65,17.25L484.24,40c-5.8-7-13.34-11.33-22.54-11.33-15.24,0-26.83,11.33-26.83,29.22,0,16.63,11.08,28.59,27.08,28.59,9.31,0,17.13-4.66,22.55-11.33l13,11.21A44.7,44.7,0,0,1,462,103.27C437,103.27,416.35,87.4,416.35,57.93Z"/><path d="M501.92,71.66c0-18.39,13.11-31.74,32.76-31.74,19.14,0,32.61,12.84,32.61,31.74s-13.47,31.86-32.61,31.86C515,103.52,501.92,90.05,501.92,71.66Zm48.63,0c0-10.08-6.8-17-15.87-17-9.58,0-16,7.31-16,17s6.54,17,16,17C543.49,88.66,550.55,81.73,550.55,71.66Z"/><path d="M572.37,93.32a10.33,10.33,0,1,1,10.45,10.2A10.27,10.27,0,0,1,572.37,93.32Z"/></svg>
