<svg version="1.1" xmlns="http://www.w3.org/2000/svg" xmlns:xlink="http://www.w3.org/1999/xlink" viewBox="-250 -40 850 650" width="1100" height="790">
<path fill="#EC0000" class="st0" d="M56.7,108c-9.6,5.1-20.6,7.8-32.7,7.8c-24.4,0-41.8-16.5-41.8-41.2c0-25.4,17.4-41.9,41.8-41.9
	c12.1,0,22.9,2.6,31.2,9.9L44.8,53.2c-5-4.9-12.7-7.7-20.7-7.7C7.8,45.5-3,58-3,73.7c0,16.9,10.8,29.4,27.1,29.4
	c7.1,0,13.6-1.3,18.5-4.1V80.3H26.5V67.6h30.3V108z M123.8,91.7V88c0-18.7-10.2-29.2-25.1-29.2c-16.2,0-29.2,11.3-29.2,28.2
	c0,16.9,13,28.1,29.2,28.1c8.5,0,16.4-3,22.7-10.7l-9.6-7.3c-3.3,4.1-7.7,7.3-14.4,7.3c-7.5,0-13.5-4.8-14.4-12.7H123.8z M82.9,81.7
	c1-7.7,5.9-12.7,13.9-12.7c8.4,0,13.5,4.9,13.6,12.7H82.9z M135.7,113.8h13.4V84.6c0-7.1,3.5-13.6,12.3-13.6c6.5,0,9.2,4.4,9.2,10.9
	v31.9H184v-29c0-6.9,3.1-13.9,11.5-13.9c7.9,0,9.9,5.8,9.9,12.5v30.4h13.4V81.9c0-12.8-5-23-19.3-23c-8,0-13.7,3.1-17.7,9.9
	c-2.8-6.7-8.5-9.9-16.8-9.9c-8.9,0-14.1,4.7-16.4,9.7h-0.2v-8.4h-12.7V113.8z M285.1,91.7V88c0-18.7-10.2-29.2-25.1-29.2
	c-16.2,0-29.2,11.3-29.2,28.2c0,16.9,13,28.1,29.2,28.1c8.5,0,16.4-3,22.7-10.7l-9.6-7.3c-3.3,4.1-7.7,7.3-14.4,7.3
	c-7.5,0-13.5-4.8-14.4-12.7H285.1z M244.2,81.7c1-7.7,5.9-12.7,13.9-12.7c8.4,0,13.5,4.9,13.6,12.7H244.2z M349.2,91.7V88
	c0-18.7-10.2-29.2-25.1-29.2c-16.2,0-29.2,11.3-29.2,28.2c0,16.9,13,28.1,29.2,28.1c8.5,0,16.4-3,22.7-10.7l-9.6-7.3
	c-3.3,4.1-7.7,7.3-14.4,7.3c-7.5,0-13.5-4.8-14.4-12.7H349.2z M308.3,81.7c1-7.7,5.9-12.7,13.9-12.7c8.4,0,13.5,4.9,13.6,12.7H308.3
	z M361.7,113.8h13.4V84.6c0-7.1,3.5-13.6,12.3-13.6c9.4,0,9.8,9.8,9.8,15.7v27.1h13.4V80c0-11-5.1-21.1-19.6-21.1
	c-8.9,0-14,4.6-16.4,9.9h-0.2v-8.6h-12.7V113.8z M430.6,71.6v24.6c0,12.6,3.4,19,17.5,19c3.1,0,7.8-0.4,10.6-1.8v-11.3
	c-1.7,1.2-4.9,1.7-7.3,1.7c-5.9,0-7.5-3.3-7.5-8.7V71.6h14.7V60.2H444V44.7h-13.4v15.5h-11.1v11.4H430.6z M520.9,91.7V88
	c0-18.7-10.2-29.2-25.1-29.2c-16.2,0-29.2,11.3-29.2,28.2c0,16.9,13,28.1,29.2,28.1c8.5,0,16.4-3,22.7-10.7l-9.6-7.3
	c-3.3,4.1-7.7,7.3-14.4,7.3c-7.5,0-13.5-4.8-14.4-12.7H520.9z M480,81.7c1-7.7,5.9-12.7,13.9-12.7c8.4,0,13.5,4.9,13.6,12.7H480z
	 M-22.4,231.5h15.8l7.1-18.1h34.3l7.4,18.1h16.1l-34.1-79.1H12.1L-22.4,231.5z M5.3,201.3l12.4-32.2l12.2,32.2H5.3z M65.3,231.5
	h13.4v-29.3c0-7.1,3.5-13.6,12.3-13.6c6.5,0,9.2,4.4,9.2,10.9v31.9h13.4v-29c0-6.9,3.1-13.9,11.5-13.9c7.9,0,9.9,5.8,9.9,12.5v30.4
	h13.4v-31.9c0-12.8-5-23-19.3-23c-8,0-13.7,3.1-17.6,9.9c-2.8-6.7-8.5-9.9-16.8-9.9c-8.9,0-14.1,4.7-16.4,9.7h-0.2v-8.4H65.3V231.5z
	 M200.6,184.7c-4.4-5.9-11.9-8.2-19.1-8.2c-10.8,0-21.6,5.4-21.6,17.3c0,20.4,28.9,11.7,28.9,22.8c0,4.2-5,6.1-8.9,6.1
	c-5.7,0-9.3-2.8-12.7-6.6l-8.9,8.4c5.5,6.1,12.6,8.3,20.9,8.3c10.9,0,23.1-4.5,23.1-17.2c0-20.9-28.9-13.1-28.9-22.7
	c0-4,4.2-5.7,7.8-5.7c4.6,0,7.9,1.9,10.5,5.5L200.6,184.7z M217.5,189.2v24.6c0,12.6,3.4,19,17.5,19c3.1,0,7.8-0.4,10.6-1.8v-11.3
	c-1.7,1.2-4.9,1.7-7.3,1.7c-5.9,0-7.5-3.3-7.5-8.7v-23.5h14.7v-11.4h-14.7v-15.5h-13.4v15.5h-11.1v11.4H217.5z M307.7,209.4v-3.7
	c0-18.7-10.2-29.2-25.1-29.2c-16.2,0-29.2,11.3-29.2,28.2c0,16.9,13,28.1,29.2,28.1c8.5,0,16.4-3,22.7-10.7l-9.6-7.3
	c-3.3,4.1-7.7,7.3-14.4,7.3c-7.5,0-13.5-4.8-14.4-12.7H307.7z M266.8,199.3c1-7.7,5.9-12.7,13.9-12.7c8.4,0,13.5,4.9,13.6,12.7
	H266.8z M320.2,231.5h13.4v-28.7c0-2.9,1.8-13.5,14.4-13.5c2.1,0,4.2,0.4,6.5,1v-13c-1.6-0.4-3.1-0.8-4.8-0.8c-7,0-13,3.7-15.9,9.8
	h-0.2v-8.5h-13.4V231.5z M404.2,231.5H417V147h-13.4v37.6h-0.3c-2.8-3.5-8.2-8.2-18.2-8.2c-15.3,0-25.9,12.3-25.9,28.1
	c0,15.9,9.9,28.2,26.5,28.2c7.5,0,14.5-2.9,18.4-9.4h0.2V231.5z M388.3,220.7c-9.8,0-15.8-7.7-15.8-16.1c0-8.4,5.9-16.1,15.8-16.1
	c9.8,0,15.7,7.7,15.7,16.1C404,213,398.1,220.7,388.3,220.7 M465.7,231.5h12.1v-30.8c0-7.6,0-24.1-22.9-24.1
	c-8.5,0-16.9,2.6-22.8,8.6l7,7c3.6-3.4,8.7-5.6,14.3-5.6c7.1,0,12.3,3.5,12.3,10.1v1.5h-3.4c-13.4,0-33.7,1.2-33.7,18.7
	c0,10.6,9.6,16.1,19.5,16.1c7.1,0,13.4-2.7,17.2-8.7h0.3V231.5z M464.9,210.5c0,7.5-4.4,12.3-13.5,12.3c-4.4,0-9.4-2.1-9.4-7
	c0-7.7,12.7-8.3,20.1-8.3h2.8V210.5z M491.6,231.5H505v-29.3c0-7.1,3.5-13.6,12.3-13.6c6.5,0,9.2,4.4,9.2,10.9v31.9h13.4v-29
	c0-6.9,3.1-13.9,11.5-13.9c7.9,0,9.9,5.8,9.9,12.5v30.4h13.4v-31.9c0-12.8-5-23-19.3-23c-8,0-13.7,3.1-17.6,9.9
	c-2.8-6.7-8.5-9.9-16.8-9.9c-8.9,0-14.1,4.7-16.4,9.7h-0.2v-8.4h-12.7V231.5z M-208.1,525.6l44.1-44.1l44.1,44.1l29.4-29.4
	l-44.1-44.1l44.1-44.1l-29.4-29.4l-44.1,44.1l-44.1-44.1l-29.4,29.4l44.1,44.1l-44.1,44.1L-208.1,525.6z M-208.1,172.6l44.1-44.1
	l44.1,44.1l29.4-29.4l-44.1-44.1L-90.5,55l-29.4-29.4L-164,69.7l-44.1-44.1L-237.5,55l44.1,44.1l-44.1,44.1L-208.1,172.6z
	 M-208.1,349.2l44.1-44.1l44.1,44.1l29.4-29.4l-44.1-44.1l44.1-44.1l-29.4-29.4l-44.1,44.1l-44.1-44.1l-29.4,29.4l44.1,44.1
	l-44.1,44.1L-208.1,349.2z"/>
</svg>
