<svg
   xmlns:dc="http://purl.org/dc/elements/1.1/"
   xmlns:cc="http://creativecommons.org/ns#"
   xmlns:rdf="http://www.w3.org/1999/02/22-rdf-syntax-ns#"
   xmlns:svg="http://www.w3.org/2000/svg"
   xmlns="http://www.w3.org/2000/svg"
   xmlns:sodipodi="http://sodipodi.sourceforge.net/DTD/sodipodi-0.dtd"
   xmlns:inkscape="http://www.inkscape.org/namespaces/inkscape"
   width="120"
   height="60"
   viewBox="0 0 848.8 421.875"
   version="1.0"
   id="svg2"
   sodipodi:version="0.32"
   inkscape:version="0.92.2 (5c3e80d, 2017-08-06)"
   sodipodi:docname="ietf-ar21.svg"
   inkscape:output_extension="org.inkscape.output.svg.inkscape">
  <metadata
     id="metadata55">
    <rdf:RDF>
      <cc:Work
         rdf:about="">
        <dc:format>image/svg+xml</dc:format>
        <dc:type
           rdf:resource="http://purl.org/dc/dcmitype/StillImage" />
        <dc:title></dc:title>
      </cc:Work>
    </rdf:RDF>
  </metadata>
  <defs
     id="defs53">
    <inkscape:perspective
       sodipodi:type="inkscape:persp3d"
       inkscape:vp_x="0 : 703.125 : 1"
       inkscape:vp_y="0 : 1000 : 0"
       inkscape:vp_z="2652.5 : 703.125 : 1"
       inkscape:persp3d-origin="1326.25 : 468.75 : 1"
       id="perspective57" />
  </defs>
  <sodipodi:namedview
     inkscape:window-height="1001"
     inkscape:window-width="1920"
     inkscape:pageshadow="2"
     inkscape:pageopacity="0.0"
     guidetolerance="10.0"
     gridtolerance="10.0"
     objecttolerance="10.0"
     borderopacity="1.0"
     bordercolor="#666666"
     pagecolor="#ffffff"
     id="base"
     showgrid="false"
     inkscape:zoom="2.8284271"
     inkscape:cx="153.487"
     inkscape:cy="-21.290063"
     inkscape:window-x="-9"
     inkscape:window-y="-9"
     inkscape:current-layer="svg2"
     inkscape:window-maximized="1" />
  <g
     id="#ffffffff"
     transform="translate(0,-707.33333)" />
  <g
     id="g4649"
     transform="translate(-3.4169423e-7,21.032693)">
    <g
       transform="matrix(1.1775165,0,0,1.1775165,-66.012303,-103.61928)"
       id="g4607">
      <path
         inkscape:connector-curvature="0"
         style="opacity:1;fill:#221e1f;stroke-width:0.27330896"
         id="path39"
         d="m 150.09808,306.73463 c 7.70731,-0.008 15.41736,-0.0219 23.12467,0.008 -0.0246,21.88658 -0.008,43.77043 -0.008,65.65701 h -23.11374 c 0.008,-21.88931 0.0137,-43.77589 -0.003,-65.66521 z" />
      <path
         inkscape:connector-curvature="0"
         style="opacity:1;fill:#221e1f;stroke-width:0.27330896"
         id="path41"
         d="m 292.91568,306.72917 c 16.4204,-0.003 32.84353,0 49.26394,-0.003 -0.0164,4.65172 0.0301,9.30617 -0.0219,13.95789 -8.71855,-0.0191 -17.43711,-0.005 -26.15567,-0.008 0.005,3.82906 0.0164,7.65812 0,11.48444 7.99702,-0.0301 15.99404,-0.0191 23.99106,-0.005 0,4.62165 0,9.24331 0,13.86496 -7.99155,0 -15.98584,0.003 -23.97739,0 -0.0246,4.15976 0.0164,8.31953 -0.0164,12.47929 8.87161,0.0519 17.74322,-0.0164 26.61209,0.0328 -0.0437,4.62165 -0.0164,9.24604 -0.0164,13.86769 h -49.66844 c -0.0219,-21.89204 0,-43.78136 -0.0109,-65.67067 z" />
      <path
         inkscape:connector-curvature="0"
         style="opacity:1;fill:#221e1f;stroke-width:0.27330896"
         id="path43"
         d="m 455.52631,306.73463 c 21.38916,-0.0137 42.77832,-0.005 64.16748,-0.005 -0.008,5.51264 0.008,11.02528 -0.008,16.53792 -6.85459,-0.003 -13.70645,0.005 -20.56104,-0.005 0,16.3794 0.003,32.75881 -0.003,49.13821 h -23.02081 c -0.0109,-16.3794 0.0219,-32.75881 -0.0164,-49.13821 -6.84912,0.0109 -13.69551,0.005 -20.54464,0.005 -0.0191,-5.51264 0.0109,-11.02255 -0.0137,-16.53246 z" />
      <path
         inkscape:connector-curvature="0"
         style="opacity:1;fill:#221e1f;stroke-width:0.27330896"
         id="path45"
         d="m 634.82519,306.72917 c 16.01043,0 32.02361,-0.008 48.03678,0.003 -0.0273,4.65445 0.0355,9.3089 -0.0328,13.96335 -8.30859,-0.0328 -16.61718,-0.0328 -24.92578,0.003 0.0246,3.92745 0.0191,7.8549 0.005,11.78508 7.8139,0.0301 15.63054,0.005 23.44718,0.0137 -0.003,4.64352 0,9.28978 0,13.93603 -7.81664,0.0137 -15.63328,-0.0164 -23.44991,0.0164 0.0328,8.65023 -0.003,17.30045 0.0219,25.95068 h -23.1028 c -0.003,-21.88931 0.003,-43.78136 0,-65.67067 z" />
    </g>
    <g
       transform="matrix(0.91250494,0,0,0.91250494,46.318931,-14.325593)"
       id="g4625">
      <path
         inkscape:connector-curvature="0"
         style="opacity:1;fill:#bbbcc1;stroke-width:0.27330896"
         id="path6"
         d="m 322.26086,64.927263 h 0.14212 c 13.1161,13.113364 26.26499,26.196664 39.32916,39.361957 -5.86521,6.02646 -11.88894,11.90534 -17.81428,17.87714 -7.14429,7.14976 -14.29132,14.29406 -21.43835,21.43562 -0.18039,-0.19952 -0.40177,-0.31704 -0.66141,-0.3553 -1.50867,-1.32008 -2.85061,-2.82328 -4.29368,-4.21169 -11.47625,-11.48444 -22.96342,-22.95796 -34.43967,-34.4424 -0.32523,-0.23778 -0.0601,-0.55208 0.14486,-0.74886 10.23268,-10.180763 20.41891,-20.41345 30.62973,-30.613341 2.89434,-2.667495 5.61377,-5.526307 8.40152,-8.303126 z" />
      <path
         inkscape:connector-curvature="0"
         style="opacity:1;fill:#bbbcc1;stroke-width:0.27330896"
         id="path8"
         d="m 415.00552,64.927263 h 0.11479 c 9.35537,9.142185 18.53582,18.47022 27.80646,27.702596 3.67873,3.738867 7.49686,7.349278 11.07994,11.178341 -13.12156,13.13249 -26.25952,26.24859 -39.37562,39.38928 -0.51382,-0.44276 -1.01671,-0.89918 -1.4868,-1.38841 -12.34263,-12.24424 -24.58414,-24.59507 -36.91311,-36.85844 -0.17765,-0.23232 -0.64774,-0.52202 -0.3635,-0.84999 13.02864,-13.069638 26.1256,-26.084611 39.13784,-39.173377 z" />
      <path
         inkscape:connector-curvature="0"
         style="opacity:1;fill:#bbbcc1;stroke-width:0.27330896"
         id="path10"
         d="m 507.85404,64.927263 h 0.14212 c 11.11274,11.13734 22.25828,22.241883 33.37923,33.371024 1.85576,1.924093 3.87005,3.706073 5.6083,5.739493 -12.92752,12.94117 -25.89876,25.84136 -38.78528,38.82353 -3.17585,-2.97087 -6.17132,-6.14125 -9.2761,-9.18864 -9.91565,-9.91839 -19.83677,-19.82857 -29.74695,-29.75515 0.24324,-0.7762 0.95111,-1.23809 1.4868,-1.80657 12.39729,-12.397297 24.79185,-24.794592 37.19188,-37.183687 z" />
      <path
         inkscape:connector-curvature="0"
         style="opacity:1;fill:#bbbcc1;stroke-width:0.27330896"
         id="path12"
         d="m 182.46059,111.27226 c 0.25965,-0.38263 0.62588,0.0109 0.83906,0.21045 8.38512,8.46165 16.87136,16.8249 25.28928,25.25102 2.70576,2.77682 5.5509,5.41971 8.1774,8.26759 -21.42195,0.008 -42.84391,0.005 -64.26586,0.003 -0.005,-0.99485 0.0465,-1.99243 -0.0492,-2.98454 -0.13665,-0.0109 -0.4127,-0.0355 -0.54935,-0.0492 0.46736,-0.62588 1.00578,-1.19436 1.57426,-1.72732 9.66694,-9.65327 19.31474,-19.32567 28.98441,-28.97075 z" />
      <path
         inkscape:connector-curvature="0"
         style="opacity:1;fill:#bbbcc1;stroke-width:0.27330896"
         id="path14"
         d="m 275.15059,111.32146 c 0.23505,-0.34164 0.66688,-0.18858 0.87459,0.0902 12.93845,12.95485 25.89876,25.88509 38.82901,38.84267 -12.99038,12.98764 -25.96435,25.98895 -38.97386,38.95746 -13.11883,-13.15983 -26.25953,-26.29779 -39.41389,-39.41935 0.13939,-0.082 0.41543,-0.24598 0.55482,-0.32797 12.70067,-12.72253 25.4314,-25.42047 38.12933,-38.143 z" />
      <path
         inkscape:connector-curvature="0"
         style="opacity:1;fill:#bbbcc1;stroke-width:0.27330896"
         id="path16"
         d="m 367.07806,112.25891 c 0.4291,-0.38263 0.75707,-0.94838 1.31462,-1.1479 0.53842,0.26238 0.89645,0.78166 1.33101,1.18616 7.516,7.50507 15.0238,15.02106 22.53706,22.53159 5.09175,5.14914 10.29828,10.18896 15.31897,15.40643 -13.0669,13.05597 -26.10921,26.142 -39.20071,39.17884 -6.91745,-6.87099 -13.79117,-13.78571 -20.69222,-20.67309 -6.09752,-6.16312 -12.3399,-12.17318 -18.42649,-18.34177 0.12026,-0.3143 0.22685,-0.64501 0.49469,-0.86912 12.45742,-12.40549 24.84652,-24.88205 37.32307,-37.27114 z" />
      <path
         inkscape:connector-curvature="0"
         style="opacity:1;fill:#bbbcc1;stroke-width:0.27330896"
         id="path18"
         d="m 615.50224,142.84491 c 10.65359,-10.60985 21.23064,-21.30716 31.92795,-31.87055 8.92354,8.89894 17.82795,17.81427 26.74055,26.72415 1.39115,1.47313 2.94354,2.79595 4.24449,4.35381 -0.75433,0.005 -1.50046,0.008 -2.24387,0.003 -0.0246,1.14517 0.0191,2.29306 -0.0437,3.43823 -21.04753,-0.0629 -42.09778,0.005 -63.14531,-0.0328 0.77347,-0.93198 1.66992,-1.75191 2.51991,-2.61557 z" />
      <path
         inkscape:connector-curvature="0"
         style="opacity:1;fill:#bbbcc1;stroke-width:0.27330896"
         id="path20"
         d="m 461.02802,112.3819 c 0.22958,-0.4045 0.55755,0 0.7598,0.18585 12.76079,12.78812 25.55165,25.55165 38.32065,38.33431 -12.88652,13.03411 -25.93429,25.91516 -38.84814,38.92466 -1.27089,-0.95658 -2.26846,-2.22473 -3.43823,-3.29883 -9.97851,-9.97578 -19.95428,-19.95429 -29.92733,-29.93553 -1.81204,-1.87217 -3.77986,-3.60768 -5.46344,-5.59737 12.86192,-12.87559 25.7457,-25.72657 38.59669,-38.61309 z" />
      <path
         inkscape:connector-curvature="0"
         style="opacity:1;fill:#bbbcc1;stroke-width:0.27330896"
         id="path22"
         d="m 542.48502,123.64223 c 3.84546,-3.81266 7.62805,-7.69092 11.50904,-11.46531 1.19983,0.97024 2.2056,2.18373 3.3371,3.24417 11.85341,11.84795 23.69316,23.70409 35.55203,35.54383 -12.43282,12.49296 -24.92577,24.92305 -37.36953,37.40233 -0.52202,0.53842 -1.03311,1.09597 -1.68358,1.47587 -2.12088,-2.28486 -4.38388,-4.4358 -6.57855,-6.64687 -10.70278,-10.75471 -21.48482,-21.43289 -32.15753,-32.21493 9.12852,-9.11212 18.2297,-18.25704 27.39102,-27.33909 z" />
      <path
         inkscape:connector-curvature="0"
         style="opacity:1;fill:#bbbcc1;stroke-width:0.27330896"
         id="path24"
         d="m 152.5032,155.63851 c 21.43289,0.008 42.86304,-0.005 64.29593,0.008 -0.28151,0.37716 -0.57395,0.74886 -0.90738,1.0823 -8.52451,8.51357 -17.04082,17.03808 -25.56259,25.55712 -2.56364,2.50898 -5.02342,5.13548 -7.65539,7.57066 -9.28977,-9.3499 -18.63967,-18.63967 -27.9431,-27.97591 -0.7598,-0.77893 -1.59886,-1.49226 -2.2466,-2.37505 0.041,-1.28729 0.0109,-2.5773 0.0191,-3.86732 z" />
      <path
         inkscape:connector-curvature="0"
         style="opacity:1;fill:#bbbcc1;stroke-width:0.27330896"
         id="path26"
         d="m 614.06737,156.38464 c 20.69769,-0.008 41.39811,-0.008 62.0958,0 -0.003,1.03311 -0.003,2.06622 0,3.09932 0.46189,0.008 0.92651,0.0191 1.40207,0.0219 -0.59308,0.86365 -1.39388,1.54419 -2.12088,2.28759 -6.10299,6.09753 -12.20051,12.20325 -18.3035,18.30624 -3.2961,3.23051 -6.46922,6.59768 -9.84185,9.7462 -9.85006,-9.86919 -19.71105,-19.72471 -29.57477,-29.58023 -1.20256,-1.30915 -2.63743,-2.41332 -3.65687,-3.88099 z" />
      <path
         inkscape:connector-curvature="0"
         style="opacity:1;fill:#bbbcc1;stroke-width:0.27330896"
         id="path28"
         d="m 507.69006,158.42079 c 0.16671,-0.18858 0.3389,-0.37443 0.51928,-0.55755 5.28033,5.33226 10.66999,10.55246 15.95578,15.87925 7.72098,7.74011 15.48295,15.44196 23.1766,23.2094 -1.69725,2.07988 -3.82906,3.75253 -5.67936,5.69302 -7.96422,7.98063 -15.94484,15.94485 -23.90907,23.9282 -3.33163,3.24965 -6.52662,6.64415 -9.92385,9.82546 -9.78992,-9.7462 -19.53885,-19.53612 -29.31512,-29.29872 -3.37536,-3.31524 -6.6332,-6.75073 -10.07963,-9.98671 1.78471,-2.09081 3.87552,-3.90558 5.76955,-5.89801 11.05535,-11.02255 22.05877,-22.09703 33.13325,-33.09771 0.0875,0.0738 0.26237,0.22685 0.35257,0.30337 z" />
      <path
         inkscape:connector-curvature="0"
         style="opacity:1;fill:#bbbcc1;stroke-width:0.27330896"
         id="path30"
         d="m 376.03986,197.38098 c 13.12703,-13.11609 26.24313,-26.24312 39.36743,-39.36195 1.89949,1.59339 3.54481,3.47102 5.33225,5.19014 11.26307,11.25759 22.5234,22.52065 33.78372,33.78098 -13.10516,13.16803 -26.27045,26.28139 -39.39748,39.43029 -3.59948,-3.4437 -7.05411,-7.03771 -10.59892,-10.53606 -9.48929,-9.50842 -19.01137,-18.98131 -28.487,-28.5034 z" />
      <path
         inkscape:connector-curvature="0"
         style="opacity:1;fill:#bbbcc1;stroke-width:0.27330896"
         id="path32"
         d="m 283.31707,197.38918 c 12.98764,-12.98491 25.96435,-25.97528 38.96019,-38.95199 13.00677,12.99857 26.00808,26.00808 39.01212,39.00939 -10.88316,10.89136 -21.77453,21.77452 -32.66042,32.66589 -2.14821,2.06348 -4.14883,4.28275 -6.3599,6.27517 -10.59619,-10.4896 -21.09125,-21.08305 -31.65465,-31.60818 -2.41878,-2.47891 -4.96055,-4.83757 -7.29734,-7.39028 z" />
      <path
         inkscape:connector-curvature="0"
         style="opacity:1;fill:#221e1f;stroke-width:0.27330896"
         id="path35"
         d="m 461.47624,96.300399 c 2.63744,2.462513 5.11635,5.094481 7.69912,7.617121 9.91018,9.92658 19.8313,19.83676 29.74695,29.75515 3.10478,3.04739 6.10025,6.21777 9.2761,9.18864 12.88652,-12.98217 25.85776,-25.88236 38.78528,-38.82353 2.42971,-2.39966 4.80477,-4.853972 7.26455,-7.223561 16.25095,16.226351 32.45817,32.496431 48.76378,48.665391 3.32344,-0.0246 6.64688,0.0137 9.97031,-0.0191 21.04753,0.0383 42.09778,-0.0301 63.14531,0.0328 0.0629,-1.14517 0.0191,-2.29306 0.0437,-3.43823 0.74341,0.005 1.48954,0.003 2.24387,-0.003 5.53451,0.003 11.06901,0.0164 16.60625,-0.005 0,5.81602 0,11.6293 0,17.44531 -5.81874,0.008 -11.63749,-0.0191 -17.45624,0.0137 -0.47556,-0.003 -0.94018,-0.0137 -1.40207,-0.0219 -0.003,-1.0331 -0.003,-2.06621 0,-3.09932 -20.69769,-0.008 -41.39811,-0.008 -62.0958,0 -5.25573,-0.0437 -10.51146,-0.0109 -15.76719,-0.0164 -1.81478,-1.79291 -3.60495,-3.61041 -5.41699,-5.40332 -11.85887,-11.83974 -23.69862,-23.69588 -35.55203,-35.54383 -1.1315,-1.06044 -2.13727,-2.27393 -3.3371,-3.24417 -3.88099,3.77439 -7.66358,7.65265 -11.50904,11.46531 -9.16132,9.08205 -18.2625,18.22697 -27.39102,27.33909 -2.304,2.28487 -4.59706,4.58339 -6.88466,6.88192 -0.18038,0.18312 -0.35257,0.36897 -0.51928,0.55755 -0.0902,-0.0765 -0.26511,-0.22958 -0.35257,-0.30337 -2.41605,-2.39965 -4.81024,-4.82117 -7.22902,-7.21536 -12.769,-12.78266 -25.55986,-25.54619 -38.32065,-38.33431 -0.20225,-0.18585 -0.53022,-0.59035 -0.7598,-0.18585 -12.85099,12.88652 -25.73477,25.7375 -38.59669,38.61309 -2.35319,2.33132 -4.69272,4.67358 -7.02404,7.02404 -13.1243,13.11883 -26.2404,26.24586 -39.36743,39.36195 -2.48437,2.45159 -4.92502,4.9469 -7.4176,7.39028 -2.44885,-2.43792 -4.89223,-4.8813 -7.33288,-7.32468 -13.00404,-13.00131 -26.00535,-26.01082 -39.01212,-39.00939 -12.99584,12.97671 -25.97255,25.96708 -38.96019,38.95199 -2.41606,2.35866 -4.75011,4.80204 -7.19076,7.13337 -16.28648,-16.27828 -32.59483,-32.53743 -48.83485,-48.85945 -3.49835,-0.0656 -6.99671,-0.0328 -10.49233,-0.0164 -21.43289,-0.0137 -42.86304,0 -64.29593,-0.008 -0.008,1.29002 0.0219,2.58003 -0.0191,3.86732 -6.28064,-0.0328 -12.55855,-0.005 -18.83919,-0.0137 v -17.43164 c 5.37599,0 10.75471,-0.005 16.13069,-0.003 0.71061,0.003 1.42394,0.0383 2.12635,-0.0875 0.13665,0.0137 0.4127,0.0383 0.54935,0.0492 0.0957,0.99211 0.0437,1.98969 0.0492,2.98454 21.42195,0.003 42.84391,0.005 64.26586,-0.003 4.97969,0.0109 9.95938,0.003 14.93907,0.005 1.57426,1.60705 3.18952,3.17312 4.76104,4.78564 13.15436,13.12156 26.29506,26.25952 39.41389,39.41935 13.00951,-12.96851 25.98348,-25.96982 38.97386,-38.95746 2.32039,-2.33679 4.69271,-4.62439 6.96391,-7.00764 0.25964,0.0383 0.48102,0.15578 0.66141,0.3553 2.2384,2.29033 4.51506,4.53693 6.78079,6.79719 6.08659,6.16859 12.32897,12.17865 18.42649,18.34177 6.90105,6.88738 13.77477,13.8021 20.69222,20.67309 13.0915,-13.03684 26.13381,-26.12287 39.20071,-39.17884 2.35865,-2.33953 4.69818,-4.69545 7.05137,-7.03771 13.1161,-13.14069 26.25406,-26.25679 39.37562,-39.38928 2.49531,-2.49805 5.02615,-4.960562 7.46953,-7.507801 m -0.008,2.525374 c -3.4027,3.553017 -6.95845,6.958447 -10.40214,10.473197 -27.58234,27.53588 -55.09362,55.14555 -82.7033,82.6541 -15.42829,-15.45289 -30.89484,-30.86478 -46.30673,-46.33407 -15.39823,15.34357 -30.75819,30.72539 -46.11816,46.10995 -4.78017,-4.65718 -9.44555,-9.42915 -14.182,-14.13007 -8.243,-8.243 -16.48599,-16.48873 -24.73173,-24.73173 -2.07988,-2.03068 -4.06683,-4.17342 -6.20684,-6.12758 -26.09281,-0.0437 -52.19108,0.0137 -78.28662,-0.0301 -0.0656,2.37506 -0.008,4.75558 -0.0273,7.13337 24.68526,0.0465 49.37053,0.005 74.05853,0.0191 0.51655,0.0683 1.16976,-0.18858 1.60159,0.18585 15.9995,15.99677 31.99354,31.99901 47.99578,47.99032 15.29164,-15.33263 30.61607,-30.63247 45.93231,-45.9405 0.0711,-0.0191 0.21318,-0.0601 0.28424,-0.0793 9.07932,9.06292 18.14225,18.14498 27.21611,27.21337 6.29977,6.34077 12.68973,12.59681 18.92664,18.99497 0.57395,-0.31157 0.95932,-0.86092 1.43761,-1.29548 30.45755,-30.44115 60.8823,-60.9151 91.35898,-91.33712 15.48022,15.41462 30.88391,30.90851 46.36687,46.3204 4.20349,-4.38661 8.62016,-8.56824 12.88925,-12.89198 11.09088,-11.07995 22.16262,-22.17629 33.25897,-33.24804 0.63407,-0.21318 0.99211,0.8008 1.50046,1.1069 14.58103,14.56737 29.1402,29.16207 43.7349,43.7185 25.69651,-0.0137 51.39575,0.003 77.09499,-0.008 0,-2.46798 0,-4.93322 0.003,-7.39847 -24.6716,0 -49.34594,0 -74.01754,0 -14.66029,-14.78328 -29.46817,-29.41624 -44.18039,-44.14486 -1.29275,-1.21623 -2.45158,-2.59371 -3.82359,-3.714272 -0.53022,0.705142 -1.21896,1.265422 -1.82571,1.896762 -14.67669,14.71496 -29.41624,29.36705 -44.06287,44.10934 -0.50289,-0.17219 -0.80079,-0.63408 -1.17249,-0.97845 -11.88894,-11.89167 -23.78062,-23.78061 -35.66955,-35.66955 -3.32617,-3.27424 -6.55395,-6.66054 -9.94298,-9.866457 z" />
      <path
         inkscape:connector-curvature="0"
         style="opacity:1;fill:#fdd34f;stroke-width:0.27330896"
         id="path50"
         d="m 461.46805,98.825773 c 3.38903,3.205917 6.61681,6.592217 9.94298,9.866457 11.88893,11.88894 23.78061,23.77788 35.66955,35.66955 0.3717,0.34437 0.6696,0.80626 1.17249,0.97845 14.64663,-14.74229 29.38618,-29.39438 44.06287,-44.10934 0.60675,-0.63134 1.29549,-1.19162 1.82571,-1.896762 1.37201,1.120562 2.53084,2.498042 3.82359,3.714272 14.71222,14.72862 29.5201,29.36158 44.18039,44.14486 24.6716,0 49.34594,0 74.01754,0 -0.003,2.46525 -0.003,4.93049 -0.003,7.39847 -25.69924,0.0109 -51.39848,-0.005 -77.09499,0.008 -14.5947,-14.55643 -29.15387,-29.15113 -43.7349,-43.7185 -0.50835,-0.3061 -0.86639,-1.32008 -1.50046,-1.1069 -11.09635,11.07175 -22.16809,22.16809 -33.25897,33.24804 -4.26909,4.32374 -8.68576,8.50537 -12.88925,12.89198 -15.48296,-15.41189 -30.88665,-30.90578 -46.36687,-46.3204 -30.47668,30.42202 -60.90143,60.89597 -91.35898,91.33712 -0.47829,0.43456 -0.86366,0.98391 -1.43761,1.29548 -6.23691,-6.39816 -12.62687,-12.6542 -18.92664,-18.99497 -9.07386,-9.06839 -18.13679,-18.15045 -27.21611,-27.21337 -0.0711,0.0191 -0.21318,0.0601 -0.28424,0.0793 -15.31624,15.30803 -30.64067,30.60787 -45.93231,45.9405 -16.00224,-15.99131 -31.99628,-31.99355 -47.99578,-47.99032 -0.43183,-0.37443 -1.08504,-0.11752 -1.60159,-0.18585 -24.688,-0.0137 -49.37327,0.0273 -74.05853,-0.0191 0.0191,-2.37779 -0.0383,-4.75831 0.0273,-7.13337 26.09554,0.0437 52.19381,-0.0137 78.28662,0.0301 2.14001,1.95416 4.12696,4.0969 6.20684,6.12758 8.24574,8.243 16.48873,16.48873 24.73173,24.73173 4.73645,4.70092 9.40183,9.47289 14.182,14.13007 15.35997,-15.38456 30.71993,-30.76638 46.11816,-46.10995 15.41189,15.46929 30.87844,30.88118 46.30673,46.33407 27.60968,-27.50855 55.12096,-55.11822 82.7033,-82.6541 3.44369,-3.51475 6.99944,-6.92018 10.40214,-10.473197 z" />
    </g>
  </g>
</svg>
