<svg version="1.1" xmlns="http://www.w3.org/2000/svg" xmlns:xlink="http://www.w3.org/1999/xlink" viewBox="0 0 152.7 34.8" width="152.7" height="34.8">
  <path fill="#fc7c00" style="fill: var(--color13, #fc7c00)" d="M42.4,8.4c4.4,0,6.9,3,6.9,7.3s-2.5,7.4-6.9,7.4-6.9-3-6.9-7.4S37.9,8.4,42.4,8.4Zm0,12.4c2.9,0,4-2.6,4-5.1s-1.2-5.1-4-5.1-4,2.6-4,5.1S39.5,20.8,42.4,20.8Z"></path><path fill="#fc7c00" style="fill: var(--color13, #fc7c00)" d="M51.7,12.3h2.6v1.5h0a3.47,3.47,0,0,1,3.2-1.7c3.2,0,4.4,2.6,4.4,5.4S60.7,23,57.5,23a3.75,3.75,0,0,1-3.1-1.4h0V27H51.7Zm2.7,5.2c0,1.5.6,3.4,2.4,3.4s2.3-1.9,2.3-3.4-.5-3.3-2.3-3.3S54.4,16.1,54.4,17.5Z"></path><path fill="#fc7c00" style="fill: var(--color13, #fc7c00)" d="M72.5,22.2a7.67,7.67,0,0,1-3.6.8c-3.5,0-5.5-2-5.5-5.4,0-3,1.6-5.5,4.9-5.5,3.9,0,5,2.7,5,6.3H66A2.69,2.69,0,0,0,69,21a6.9,6.9,0,0,0,3.5-1.1Zm-1.8-5.7c-.1-1.3-.7-2.5-2.2-2.5a2.39,2.39,0,0,0-2.4,2.5Z"></path><path fill="#fc7c00" style="fill: var(--color13, #fc7c00)" d="M75.4,12.3H78v1.4h0A4,4,0,0,1,81.4,12c2.5,0,3.6,1.7,3.6,4.1v6.6H82.3V17.1c0-1.3,0-3-1.8-3-2,0-2.4,2.1-2.4,3.5v5.1H75.4Z"></path><path fill="#fc7c00" style="fill: var(--color13, #fc7c00)" d="M88,8.6h8.4v2.2H90.9v3.5H96v2.2H90.9v4h5.6v2.2H88Z"></path><path fill="#fc7c00" style="fill: var(--color13, #fc7c00)" d="M106,21.6h0a4.12,4.12,0,0,1-3.2,1.4c-3.2,0-4.4-2.6-4.4-5.5s1.2-5.4,4.4-5.4a3.62,3.62,0,0,1,3.1,1.5h0v-6h2.7V22.8H106Zm-2.4-.7c1.8,0,2.4-1.9,2.4-3.4s-.7-3.3-2.4-3.3-2.3,1.9-2.3,3.3S101.8,20.9,103.6,20.9Z"></path><path fill="#fc7c00" style="fill: var(--color13, #fc7c00)" d="M111.6,7.8h2.7v2.6h-2.7Zm0,4.5h2.7V22.8h-2.7Z"></path><path fill="#fc7c00" style="fill: var(--color13, #fc7c00)" d="M118,14.3h-2v-2h2V10.2l2.7-.9v3h2.4v2h-2.4v4.9c0,.9.2,1.7,1.3,1.7a1.92,1.92,0,0,0,1.2-.3l.1,2.2a6.17,6.17,0,0,1-2,.2,3.08,3.08,0,0,1-3.3-3.4Z"></path><path fill="#fc7c00" style="fill: var(--color13, #fc7c00)" d="M125.1,7.8h2.7v2.6h-2.7Zm0,4.5h2.7V22.8h-2.7Z"></path><path fill="#fc7c00" style="fill: var(--color13, #fc7c00)" d="M135.5,12.1a5.25,5.25,0,0,1,5.5,5.5,5.5,5.5,0,0,1-11,0A5.25,5.25,0,0,1,135.5,12.1Zm0,8.8c2.1,0,2.6-1.9,2.6-3.6s-.9-3.1-2.6-3.1-2.6,1.5-2.6,3.1S133.4,20.9,135.5,20.9Z"></path><path fill="#fc7c00" style="fill: var(--color13, #fc7c00)" d="M143.1,12.3h2.6v1.4h0a4,4,0,0,1,3.4-1.7c2.5,0,3.6,1.7,3.6,4.1v6.6H150V17.1c0-1.3,0-3-1.8-3-2,0-2.4,2.1-2.4,3.5v5.1h-2.7Z"></path><path fill="#f74a00" style="fill: var(--color22, #f74a00)" d="M42.4,8.4c4.4,0,6.9,3,6.9,7.3s-2.5,7.4-6.9,7.4-6.9-3-6.9-7.4S37.9,8.4,42.4,8.4Zm0,12.4c2.9,0,4-2.6,4-5.1s-1.2-5.1-4-5.1-4,2.6-4,5.1S39.5,20.8,42.4,20.8Z"></path><path fill="#f74a00" style="fill: var(--color22, #f74a00)" d="M51.7,12.3h2.6v1.5h0a3.47,3.47,0,0,1,3.2-1.7c3.2,0,4.4,2.6,4.4,5.4S60.7,23,57.5,23a3.75,3.75,0,0,1-3.1-1.4h0V27H51.7Zm2.7,5.2c0,1.5.6,3.4,2.4,3.4s2.3-1.9,2.3-3.4-.5-3.3-2.3-3.3S54.4,16.1,54.4,17.5Z"></path><path fill="#f74a00" style="fill: var(--color22, #f74a00)" d="M72.5,22.2a7.67,7.67,0,0,1-3.6.8c-3.5,0-5.5-2-5.5-5.4,0-3,1.6-5.5,4.9-5.5,3.9,0,5,2.7,5,6.3H66A2.69,2.69,0,0,0,69,21a6.9,6.9,0,0,0,3.5-1.1Zm-1.8-5.7c-.1-1.3-.7-2.5-2.2-2.5a2.39,2.39,0,0,0-2.4,2.5Z"></path><path fill="#f74a00" style="fill: var(--color22, #f74a00)" d="M75.4,12.3H78v1.4h0A4,4,0,0,1,81.4,12c2.5,0,3.6,1.7,3.6,4.1v6.6H82.3V17.1c0-1.3,0-3-1.8-3-2,0-2.4,2.1-2.4,3.5v5.1H75.4Z"></path><path fill="#f74a00" style="fill: var(--color22, #f74a00)" d="M88,8.6h8.4v2.2H90.9v3.5H96v2.2H90.9v4h5.6v2.2H88Z"></path><path fill="#f74a00" style="fill: var(--color22, #f74a00)" d="M106,21.6h0a4.12,4.12,0,0,1-3.2,1.4c-3.2,0-4.4-2.6-4.4-5.5s1.2-5.4,4.4-5.4a3.62,3.62,0,0,1,3.1,1.5h0v-6h2.7V22.8H106Zm-2.4-.7c1.8,0,2.4-1.9,2.4-3.4s-.7-3.3-2.4-3.3-2.3,1.9-2.3,3.3S101.8,20.9,103.6,20.9Z"></path><path fill="#f74a00" style="fill: var(--color22, #f74a00)" d="M111.6,7.8h2.7v2.6h-2.7Zm0,4.5h2.7V22.8h-2.7Z"></path><path fill="#f74a00" style="fill: var(--color22, #f74a00)" d="M118,14.3h-2v-2h2V10.2l2.7-.9v3h2.4v2h-2.4v4.9c0,.9.2,1.7,1.3,1.7a1.92,1.92,0,0,0,1.2-.3l.1,2.2a6.17,6.17,0,0,1-2,.2,3.08,3.08,0,0,1-3.3-3.4Z"></path><path fill="#f74a00" style="fill: var(--color22, #f74a00)" d="M125.1,7.8h2.7v2.6h-2.7Zm0,4.5h2.7V22.8h-2.7Z"></path><path fill="#f74a00" style="fill: var(--color22, #f74a00)" d="M135.5,12.1a5.25,5.25,0,0,1,5.5,5.5,5.5,5.5,0,0,1-11,0A5.25,5.25,0,0,1,135.5,12.1Zm0,8.8c2.1,0,2.6-1.9,2.6-3.6s-.9-3.1-2.6-3.1-2.6,1.5-2.6,3.1S133.4,20.9,135.5,20.9Z"></path><path fill="#f74a00" style="fill: var(--color22, #f74a00)" d="M143.1,12.3h2.6v1.4h0a4,4,0,0,1,3.4-1.7c2.5,0,3.6,1.7,3.6,4.1v6.6H150V17.1c0-1.3,0-3-1.8-3-2,0-2.4,2.1-2.4,3.5v5.1h-2.7Z"></path><path fill="#fc7c00" style="fill: var(--color13, #fc7c00)" d="M17.5,34.8A14.55,14.55,0,0,0,31.3,26h0C23.6,25.5,17.6,33.5,17.5,34.8Z"></path><path fill="#fc7c00" style="fill: var(--color13, #fc7c00)" d="M0,22.2a14.52,14.52,0,0,1,13.4,9.4h0C5.8,31.7.2,25,0,22.2Z"></path><path fill="#fc7c00" style="fill: var(--color13, #fc7c00)" d="M15.4,18.8c-4-1.6-5.8-5.2-4.5-8.4a5.07,5.07,0,1,1,9.4,3.8,8.64,8.64,0,0,1-2.6,3.1c4,1.4,8.5.1,9.9-2,1.8-2.7-.4-8-.4-8A11.91,11.91,0,0,0,20.5,1a12.79,12.79,0,1,0-9.6,23.7,11.14,11.14,0,0,0,3,.8l.9,9.2h1.6l.9-9.2a12.93,12.93,0,0,0,10.3-7.9h0A13.39,13.39,0,0,1,15.4,18.8Z"></path>
</svg>
