<svg version="1.1" id="layer" xmlns="http://www.w3.org/2000/svg" xmlns:xlink="http://www.w3.org/1999/xlink" x="0px" y="0px"
	 viewBox="0 240 652 160" width="652" height="160">
<style type="text/css">
	.st0{fill:#FFFFFF;}
	.st1{fill:#E3A82B;}
	.st2{fill:#234075;}
</style>
<g>
	<path class="st0" d="M53.9,374.7c37.9,0,90.4,21.4,128.5,21.4c27.2,0,53.7-7.2,68.7-17.9c1-6.3,1.6-12.7,1.6-19.3
		c0-63.7-51.7-115.4-115.4-115.4S21.9,295.2,21.9,358.9c0,6.5,0.5,12.9,1.6,19.1C27.6,377.1,41.8,374.7,53.9,374.7z"/>
	<g>
		<g>
			<rect x="313.4" y="397.3" class="st1" width="267" height="3.2"/>
			<path class="st2" d="M320.3,281.6c0-5.4-0.4-6.9-4.1-7.1l-2.5-0.2c-0.4-0.3-0.3-1.8,0.1-1.9c4.4-0.4,9.9-0.6,17.5-0.6
				c5.1,0,10,0.3,13.7,2c3.5,1.5,6.2,4.5,6.2,9.2c0,5.3-3.4,8-8.3,10c0,0.8,0.7,0.9,1.5,1.1c4.4,0.8,10.9,4.4,10.9,12.2
				c0,8.5-7,14.2-21.6,14.2c-2.4,0-6.4-0.3-9.8-0.3c-3.6,0-6.4,0.2-9.3,0.3c-0.5-0.3-0.7-1.4-0.2-1.9l1.4-0.3
				c4.3-0.7,4.5-1.4,4.5-9.2L320.3,281.6L320.3,281.6z M326.9,291.4c0,2,0.1,2.2,4.2,2c8.3-0.3,12.7-2.5,12.7-9.3
				c0-7.2-5.9-9.9-12.1-9.9c-1.8,0-3,0.2-3.7,0.4c-0.8,0.3-1.1,0.6-1.1,1.9V291.4L326.9,291.4z M326.9,308.3c0,2.6,0.2,6.4,1.7,8
				c1.5,1.7,4,2,6.4,2c7.2,0,12.7-3,12.7-10.3c0-5.8-3.2-12.6-16.2-12.6c-4.4,0-4.8,0.4-4.8,1.9L326.9,308.3L326.9,308.3z"/>
			<path class="st2" d="M411.7,288.8c0-6.6-0.2-7.7-4.2-8l-1.7-0.1c-0.4-0.3-0.3-1.4,0.2-1.5c3.5,0.1,5.9,0.2,8.7,0.2
				c2.8,0,5.2-0.1,8.6-0.2c0.4,0.2,0.6,1.3,0.2,1.5l-1.7,0.1c-4.1,0.3-4.2,1.4-4.2,8V311c0,6.6,0.2,7.5,4.2,8l1.7,0.2
				c0.4,0.3,0.3,1.4-0.2,1.5c-3.5-0.1-5.9-0.2-8.6-0.2c-2.9,0-5.3,0.1-8.7,0.2c-0.4-0.2-0.6-1.2-0.2-1.5l1.7-0.2
				c4.1-0.4,4.2-1.3,4.2-8V288.8z"/>
			<path class="st2" d="M450.2,311.2c0,6.5,0.2,7.5,3.9,7.8l2.1,0.2c0.4,0.3,0.3,1.4-0.2,1.5c-3.7-0.1-5.9-0.2-8.5-0.2
				c-2.6,0-4.9,0.1-9.1,0.2c-0.4-0.2-0.5-1.3,0-1.5l2.4-0.2c3.7-0.3,4.1-1.3,4.1-7.8v-28c0-2,0-2-2-2h-3.6c-2.8,0-6.4,0.1-8,1.5
				c-1.5,1.4-2.2,2.7-2.9,4.3c-0.5,0.3-1.4,0.1-1.7-0.4c1-2.8,2-6.8,2.5-9.3c0.2-0.1,1-0.2,1.3,0c0.4,2,2.5,2,5.5,2h26.4
				c3.5,0,4.1-0.1,5.1-1.8c0.3-0.1,1-0.1,1.2,0.2c-0.7,2.5-1.2,7.6-1,9.5c-0.3,0.5-1.4,0.5-1.7,0.1c-0.2-1.5-0.7-3.9-1.6-4.6
				c-1.5-1.1-4-1.5-7.6-1.5h-4.6c-2,0-1.9,0.1-1.9,2.1v28C450.5,311.2,450.2,311.2,450.2,311.2z"/>
			<path class="st2" d="M478.1,288.8c0-6.6-0.2-7.7-4.2-8l-1.7-0.1c-0.4-0.3-0.3-1.4,0.2-1.5c3.5,0.1,5.9,0.2,8.7,0.2
				c2.8,0,5.2-0.1,8.6-0.2c0.4,0.2,0.6,1.3,0.2,1.5l-1.7,0.1c-4.1,0.3-4.2,1.4-4.2,8V311c0,6.6,0.2,7.5,4.2,8l1.7,0.2
				c0.4,0.3,0.3,1.4-0.2,1.5c-3.5-0.1-5.9-0.2-8.6-0.2c-2.9,0-5.3,0.1-8.7,0.2c-0.4-0.2-0.6-1.2-0.2-1.5l1.7-0.2
				c4.1-0.4,4.2-1.3,4.2-8V288.8z"/>
			<path class="st2" d="M509.2,321.5c-6.2,0-10.1-1.6-11.5-2.3c-0.8-1.4-1.9-5.9-2-8.7c0.3-0.4,1.4-0.6,1.8-0.2
				c1.1,3.2,4.2,9.3,12.7,9.3c6.2,0,9.2-3.5,9.2-7.2c0-2.7-0.7-5.9-6-8.7l-7-3.9c-3.6-2-8-5.6-8-10.8c0-5.9,5.4-10.8,15-10.8
				c2.3,0,4.9,0.3,6.9,0.8c0.9,0.3,2,0.3,2.5,0.3c0.7,1.5,1.4,5,1.4,7.6c-0.3,0.3-1.4,0.6-1.9,0.2c-0.9-3-3-7-10-7
				c-7.2,0-8.8,4.1-8.8,7c0,3.6,3.6,6.3,6.3,7.7l5.9,3.1c4.7,2.5,9.2,6.1,9.2,12C524.9,316.7,518.8,321.5,509.2,321.5z"/>
			<path class="st2" d="M546.4,300.4c-3.2,0-3.4,0.1-3.4,2v8.8c0,6.5,0.3,7.5,4.1,7.8l2,0.2c0.4,0.3,0.3,1.4-0.2,1.5
				c-3.6-0.1-5.9-0.2-8.6-0.2c-2.9,0-5.2,0.1-7.8,0.2c-0.4-0.2-0.5-1.2-0.2-1.5l1.1-0.2c3.7-0.6,3.9-1.3,3.9-7.8v-22.6
				c0-6.5-0.5-7.6-4-7.9l-1.8-0.1c-0.4-0.3-0.3-1.4,0.2-1.5c3.3,0.1,5.6,0.2,8.5,0.2c2.6,0,4.9-0.1,7.8-0.2c0.4,0.2,0.5,1.3,0.2,1.5
				l-1.3,0.1c-3.9,0.3-4.1,1.3-4.1,7.9v7.2c0,2,0.2,2,3.4,2h19.3c3.2,0,3.4-0.1,3.4-2v-7.2c0-6.5-0.2-7.5-4.1-7.9l-1.3-0.1
				c-0.4-0.3-0.3-1.4,0.2-1.5c3.1,0.1,5.3,0.2,8.1,0.2c2.6,0,4.9-0.1,8-0.2c0.4,0.2,0.5,1.3,0.2,1.5l-1.4,0.1
				c-3.9,0.3-4.1,1.3-4.1,7.9v22.5c0,6.5,0.2,7.4,4.1,7.8l1.6,0.2c0.4,0.3,0.3,1.4-0.2,1.5c-3.2-0.1-5.5-0.2-8.1-0.2
				c-2.8,0-5.2,0.1-8.1,0.2c-0.4-0.2-0.5-1.2-0.2-1.5l1.3-0.2c4.1-0.6,4.1-1.3,4.1-7.8v-8.8c0-1.9-0.2-2-3.4-2L546.4,300.4
				L546.4,300.4z"/>
			<path class="st2" d="M281.7,334.5c5.5-4.3,12.6-6.4,20.4-6.4c4.1,0,9.8,0.8,13.4,1.8c0.9,0.3,1.4,0.3,2.1,0.3
				c0.1,1.7,0.4,6.5,1,11.1c-0.3,0.5-1.5,0.6-2,0.2c-1.1-5.2-4.6-11-15.5-11c-11.6,0-21.5,7.3-21.5,23c0,15.9,10.1,24.6,22.5,24.6
				c9.8,0,14.1-6.4,15.9-10.8c0.5-0.3,1.7-0.3,2,0.3c-0.5,3.9-2.5,8.9-3.6,10.4c-0.9,0.2-1.8,0.4-2.6,0.8c-1.7,0.6-7.1,1.7-12,1.7
				c-6.8,0-13.3-1.4-18.8-5.1c-6-4.2-10.8-11-10.8-20.8C272.1,346.2,276,339,281.7,334.5z"/>
			<path class="st2" d="M323.1,359c0-12.5,9.8-22.1,23.4-22.1c15.2,0,22.8,10.4,22.8,21.5c0,12.6-10.1,21.8-22.8,21.8
				C332,380.2,323.1,370.3,323.1,359z M362.8,360.3c0-10.4-4.8-21.5-17.3-21.5c-6.9,0-15.7,4.4-15.7,18.2c0,9.2,4.8,21.3,17.6,21.3
				C355.3,378.2,362.8,372.6,362.8,360.3z"/>
			<path class="st2" d="M443.5,353.6c0-3.9-0.2-11.1-1.3-13c-0.4-0.8-1.7-1.2-3.3-1.3l-1.7-0.1c-0.4-0.4-0.3-1.3,0.2-1.5
				c2.5,0.1,5,0.2,7.6,0.2c2.8,0,4.6-0.1,7-0.2c0.5,0.3,0.4,1.1,0.2,1.5l-1.6,0.1c-1.7,0.1-2.9,0.7-3.3,1.5c-0.9,2-0.9,9.2-0.9,12.7
				v7c0,5.4-0.9,11.2-4.7,14.9c-2.9,3-7.7,4.6-12.6,4.6c-4.6,0-9.2-0.8-12.4-3.5c-3.5-2.7-5.2-7.3-5.2-14.8v-14.8
				c0-6.5-0.2-7.6-4-7.9l-1.7-0.1c-0.4-0.3-0.3-1.3,0.2-1.5c3.3,0.1,5.6,0.2,8.2,0.2c2.7,0,4.9-0.1,8.1-0.2c0.4,0.2,0.5,1.3,0.2,1.5
				l-1.6,0.1c-3.8,0.3-4,1.4-4,7.9v13.5c0,10.1,3.3,16.7,13.5,16.7c9.6,0,13.2-7.1,13.2-16.6L443.5,353.6L443.5,353.6z"/>
			<path class="st2" d="M520.5,345.8c0-4.7-0.3-5.9-3.6-6.1l-2.4-0.3c-0.3-0.3-0.4-1.5,0.1-1.5c4-0.3,8.9-0.5,15.8-0.5
				c4.6,0,9,0.3,12.3,1.8c3.1,1.4,5.6,3.8,5.6,7.9c0,4.6-3.1,6.9-7.5,8.7c0,0.6,0.6,0.8,1.4,0.9c4,0.6,9.8,3.8,9.8,10.5
				c0,7.3-6.3,12.2-19.5,12.2c-2.1,0-5.7-0.2-8.8-0.2c-3.2,0-5.7,0.1-8.4,0.2c-0.4-0.2-0.6-1.2-0.2-1.6l1.4-0.2
				c3.9-0.6,4.1-1.3,4.1-7.9L520.5,345.8L520.5,345.8z M526.5,354.2c0,1.8,0.1,1.9,3.8,1.8c7.5-0.3,11.5-2.1,11.5-8.1
				c0-6.2-5.3-8.6-10.9-8.6c-1.6,0-2.7,0.1-3.4,0.3c-0.8,0.2-1,0.5-1,1.6L526.5,354.2L526.5,354.2z M526.5,368.8
				c0,2.3,0.2,5.5,1.5,6.9c1.4,1.4,3.6,1.8,5.8,1.8c6.5,0,11.5-2.5,11.5-8.8c0-5-3-10.8-14.6-10.8c-4,0-4.2,0.3-4.2,1.6L526.5,368.8
				L526.5,368.8z"/>
			<g>
				<g>
					<path class="st2" d="M401,319.3l-1.7-0.2c-0.3,0-0.7-0.1-0.9-0.2c-2.5-0.4-3.6-2.7-4.8-4.8l-6-10.4c-1-1.8-2.1-4.1-4.5-4.4
						c6.2-0.8,11.7-4.3,11.7-10.4c0-7-7-10.2-14-10.2c-4.2,0-8.1,0.1-12.4,0.1c-2.4,0-5.2-0.1-7.6-0.1c-1.4,0-1.4,0.3-1.4,1
						c0,1.1,0.4,0.8,1.9,0.8c5,0.3,4.8,1.2,4.8,5.5v27.4c0,3.9,0.3,5.1-3.8,5.4c0,0-0.6,0.1-1,0.1l-1.7,0.3
						c-0.4,0.3-0.3,1.4,0.2,1.5c0.9,0,2.5-0.1,2.5-0.1c2.3-0.1,4.6-0.3,6.9-0.3c2.3,0,4.5,0.2,6.7,0.3l0,0c0.8,0,1.6,0.1,2.5,0.1
						c0.4-0.2,0.6-1.2,0.2-1.5l-1.8-0.2c-0.3,0-0.9-0.1-0.9-0.1c-4.2-0.3-3.9-1.4-3.9-5.5v-10.4c0-0.6-0.1-2.2,0.3-2.7
						c0.3-0.4,1-0.3,1.6-0.3c5.6,0,5.6,0.5,8.2,5.3l7.3,13.1c0.6,1,1,2.3,2.5,2.3h6.3c0.8,0,1.6,0.1,2.5,0.1
						C401.4,320.6,401.5,319.6,401,319.3z M375.7,298.7c-1.3,0-3.8,0.5-3.8-1.2v-12c0-4.7,0.2-5.3,5.8-5.3c6.6,0,10.7,3.3,10.7,9.5
						c0,2.7-0.9,5.2-3.4,6.9C382.2,298.4,379.1,298.7,375.7,298.7z"/>
				</g>
			</g>
			<g>
				<path class="st2" d="M377.1,347.4c0-6.5-0.2-7.6-4.5-7.9l-1.7-0.1c-0.4-0.3-0.3-1.4,0.2-1.5c3.8,0.1,6.2,0.2,8.9,0.2
					s5-0.1,8.5-0.2c0.4,0.2,0.5,1.3,0.2,1.5l-1.6,0.1c-4.1,0.3-4.2,1.3-4.2,7.9v21.8c0,3.9,0.2,5.6,1.4,6.8c0.8,0.7,2,1.4,7.5,1.4
					c5.9,0,7.3-0.3,8.4-0.8c1.4-0.8,3.1-3,4.6-6.2c0.4-0.3,1.7-0.1,1.7,0.3c0,0.7-2,7-2.9,8.7c-3.5-0.1-10-0.2-17.1-0.2h-6.4
					c-2.9,0-5.1,0.1-8.9,0.2c-0.4-0.2-0.5-1.2-0.2-1.5l2-0.2c4-0.3,4.2-1.3,4.2-7.8L377.1,347.4L377.1,347.4z"/>
				<path class="st2" d="M561.5,347.5c0-6.6-0.2-7.7-4.2-8l-1.7-0.1c-0.4-0.3-0.3-1.4,0.2-1.5c3.4,0.1,5.7,0.2,8.5,0.2
					c2.7,0,5-0.1,8.4-0.2c0.4,0.2,0.5,1.3,0.2,1.5l-1.7,0.1c-4,0.3-4.2,1.4-4.2,8v22.2c0,6.6,0.2,7.5,4.2,8l1.7,0.2
					c0.4,0.3,0.3,1.4-0.2,1.5c-3.4-0.1-5.7-0.2-8.4-0.2c-2.8,0-5.2,0.1-8.5,0.2c-0.4-0.2-0.5-1.2-0.2-1.5l1.7-0.2
					c4-0.4,4.2-1.3,4.2-8V347.5z"/>
				<path class="st2" d="M507.5,377.7c-0.3,0-1-0.1-1-0.1c-0.7-0.1-1.4-0.2-1.9-0.8c-0.8-0.9-0.8-3.6-0.8-4.7v-27.4
					c0-1.2-0.3-3.8,0.6-4.8c0.4-0.5,1.4-0.6,2.1-0.6l0,0c0.5,0,0.5,0,0.9-0.1l1.7-0.1c0.4-0.3,0.3-1.4-0.2-1.5c-0.9,0-1.8,0-2.5,0.1
					l0,0h-7.4c-0.8,0-1.5,0-2,0.8l-15,31.3l-13.3-30.3c-0.4-1.1-0.5-2-1.9-2h-7.7c-0.8,0-1.7,0-2.6-0.1c-0.4,0.2-0.6,1.3-0.2,1.5
					l1.7,0.1c0.3,0,1,0.1,1,0.1c2.9,0.2,3.1,0.8,2.8,3.9l-2.3,29.4c-0.2,3-0.3,4.5-3.5,4.8c0,0-0.7,0.1-1,0.1l-1.7,0.2
					c-0.4,0.3-0.3,1.4,0.2,1.5c0.9,0,2.5-0.1,2.5-0.1c1.5-0.1,3.1-0.3,4.8-0.3c1.7,0,3.5,0.2,5.2,0.3l0,0c0.8,0,1.6,0.1,2.5,0.1
					c0.4-0.2,0.6-1.2,0.2-1.5l-1.7-0.2c-0.4,0-0.9-0.1-0.9-0.1c-4.5-0.3-4.3-3.5-4.1-7.3l2.1-27.3h0.5l14.4,33.7
					c0.2,0.4,0.3,1.3,1.1,1.3c0.7,0,0.8-0.8,1.1-1.2l16.2-34.5h0.5v30c0,1.2,0.2,3.6-1.1,4.6c-0.7,0.5-2.7,0.8-2.7,0.8
					c-0.3,0.1-0.6,0.1-0.9,0.1l-1.7,0.2c-0.4,0.3-0.3,1.4,0.2,1.5c0.9,0,2.5-0.1,2.5-0.1c2.4-0.1,4.8-0.3,7.1-0.3
					c1.7,0,5.1,0.2,5.1,0.2c0.8,0,1.7,0.1,2.6,0.2c0.4-0.2,0.6-1.2,0.2-1.5L507.5,377.7z"/>
				<g>
					<g>
						<path class="st2" d="M620.3,377.9l-0.3-0.2c-0.3,0-0.7-0.1-0.9-0.1c-2.7-0.6-3.7-3.9-4.8-6.2l-13.9-32.9
							c-0.2-0.4-0.4-1.3-0.9-1.3c-0.8,0-0.9,0.9-1.2,1.4L585,371.6c-0.5,1.3-1.7,4.2-2.6,5.2c-0.7,0.7-1.6,0.8-2.5,0.9
							c0,0-0.8,0.1-1.1,0.1l-1.6,0.2c-0.4,0.3-0.3,1.4,0.2,1.5c0.9,0,2.5-0.1,2.5-0.1c1.8,0,3.6-0.3,5.4-0.3c1.5,0,3.1,0.2,4.6,0.3
							c0,0,1.6,0.1,2.5,0.1c0.4-0.2,0.6-1.2,0.2-1.5l-1.7-0.2c-0.3,0-0.9-0.1-0.9-0.1c-1.6-0.2-3.6-0.4-3.6-2.2
							c0-1.2,0.6-2.5,0.9-3.6l2-4.9c1-2.4,0.6-2.6,3.4-2.6h9.3c3.3,0,2.8,0,4.2,3.3l2.2,5c0.3,0.8,0.9,2.3,0.9,3.2
							c0,1.6-1.8,1.8-3.5,1.9c0,0-0.6,0.1-1,0.1l-1.7,0.1c-0.4,0.3-0.3,1.4,0.2,1.5c0.9,0,2.5-0.1,2.5-0.1c2-0.1,3.9-0.3,5.9-0.3
							c2.4,0,4.8,0.2,7.2,0.3l0,0c0.8,0,0.1,0.1,1,0.1C620.6,379.3,620.7,378.3,620.3,377.9z M602,362.5h-8.1
							c-0.3,0-2.5,0.3-2.5-0.4c0-0.2,0.2-0.6,0.2-0.8l4.8-12c0.2-0.3,0.6-2,1.2-2c0.4,0,1,1.7,1.1,2l4.8,11.3c0,0.2,0.5,1.2,0.5,1.4
							C604.2,362.6,602.5,362.5,602,362.5z"/>
					</g>
				</g>
			</g>
		</g>
		<g>
			<polygon class="st1" points="212,332.2 216.6,334 226.7,327 			"/>
			<path class="st1" d="M41.9,324.3L30,320l0.6-1.4l13.5,4.5h0.1l1.8-1l0.7-0.4l-14.8-6.3l0.6-1.5l32.9,13.3l1.1-0.4l-32.6-15.9
				l0.8-1.5l34.5,16.1l0.5-0.3l-33.5-19l0.7-1.4l48.4,26.3c0.4-0.8,1.2-2,1.6-2.8C68.4,311,50.7,298,50.7,298s18.2,12.2,40.8,23.6
				c0.8-0.9,1.4-1.7,2.1-2.5l-41.3-36.3l1.1-1.1L86.7,310l-30.9-30.9l1.2-1.2l34.6,33.5l-32.2-35.8l1.3-1.1l29.8,31.9l-27.2-34.3
				l1.2-1.1l34.9,42.4c0.9-0.8,1.6-1.4,2.6-2.1C91.4,288.6,79.9,270,79.9,270s12.3,18.1,28.8,37c1-0.6,2-1.1,3.1-1.6l-0.2-0.1
				l-24.4-48.8l1.4-0.7l20.3,38.8l-17.1-40.2l1.5-0.7l19.6,44l-16.5-45.3l1.5-0.6l15.7,40.8l-12.5-42.1l1.5-0.5l16.3,52.1v0.2l0,0
				c1.1-0.3,2.2-0.7,3.3-1c-1.3-25-4.9-46.4-4.9-46.4s4.6,21.2,12.8,44.9c1.1-0.2,2.3-0.3,3.5-0.3v-0.1h0.2l-0.1-0.1l-4.4-54.4
				l1.6-0.1l4.2,43.6l-0.9-43.8l1.7-0.1l1.7,48.2l1.7-48.2l1.7,0.1l-0.8,43.7l4.2-43.6l1.6,0.1l-4.4,54.4l-0.1,0.1l0,0l0,0h0.1
				c1.1,0.1,2.3,0.2,3.4,0.3c8.2-23.6,12.8-44.8,12.8-44.8s-3.6,21.3-4.9,46.3c1.1,0.3,2.2,0.6,3.3,1l16.3-51.9l1.5,0.5l-12.4,42
				l15.4-40.8l1.5,0.6l-16.5,45.3l19.6-44l1.5,0.7l-17.1,40.2l20.3-38.8l1.4,0.7l-24.4,48.6l0,0c1,0.5,2,1,3,1.5
				c16.5-18.8,28.7-36.8,28.7-36.8s-11.5,18.4-22,41.2c0.9,0.7,1.9,1.4,2.7,2.2l34.4-42l1.2,1.1l-27.2,34.3l29.8-31.9l1.3,1.1
				l-32.2,35.8l34.6-33.5l1.2,1.2l-30.9,30.9l33.3-28.4l1.1,1.1l-40.8,35.9l0,0c0.7,0.8,1.4,1.6,2,2.5
				c22.4-11.3,40.5-23.4,40.5-23.4s-17.6,12.9-35.9,30c0.5,0.8,1.3,2.3,1.8,3.1l47.7-26l0.7,1.4l-38.1,21.6l39.6-18.4l0.8,1.5
				l-36.9,18l0.7,0.3l37.5-15.2l0.6,1.5L208,330.6l0.7,0.3l23.2-7.7l3.5-2.5l1.2,0.8l7.6-2.5l0.6,1.4l-6.6,2.3l9.6,7.3l3.1,1.7
				c-12.3-51.4-58.5-89.6-113.7-89.6c-56.2,0-103,39.5-114.3,92.3c0.2-0.1,0.3-0.2,0.4-0.2l1.4-0.6l0.8-0.4L41.9,324.3z"/>
		</g>
		<path class="st2" d="M22.4,380.4c0,0,17.2-3.5,31.6-3.5c37.9,0,90.4,21.4,128.5,21.4c27.9,0,55.2-7.6,70-18.8
			c1.2-6.6,1.8-13.4,1.8-20.4c0-9.4-1.1-18.5-3.2-27.3l-15.9-8.8L216.7,336l-12.6-4.8c-4.2,2.1-30.4,19.6-30.4,19.6l-10-7.3
			l-10.8-2.1l-14.3-10.4l-16.5,11.3c0,0-18.4,10.7-19,10.7S81,335.8,81,335.8L71,325.4c-1.7,1.1-8.5,4.2-8.5,4.2l-0.3,0.1l-6.5-2
			l-8-4.2l-24.1,10.9c-0.2,0.1-0.3,0.2-0.4,0.2c-1.7,7.9-2.6,16.1-2.6,24.6C20.5,366.4,21.2,373.5,22.4,380.4z"/>
	</g>
</g>
</svg>
