<svg xmlns="http://www.w3.org/2000/svg" xmlns:xlink="http://www.w3.org/1999/xlink" version="1.1" id="Ebene_1" viewBox="0 0 300 168.8" width="300" height="168.8" xml:space="preserve"><style type="text/css" id="style57">.st1,.st2{fill:#003056}.st2{clip-path:url(#SVGID_4_)}</style><g id="g67" transform="translate(-156 -218.4)"><defs id="defs60"><path id="SVGID_1_" d="M156 218.4h291.2v168.8H156z"/></defs><clipPath id="SVGID_2_"><use xlink:href="#SVGID_1_" id="use62" x="0" y="0" width="100%" height="100%" overflow="visible"/></clipPath><path d="M398.8 271.2h7.2c10.5 0 19 3.7 19 13.2 0 9.8-8.5 13.6-18 13.6-3.6 0-6.1 0-8.2-.4zm0-36.7c1.7-.4 4.3-.7 9-.7 9.6 0 15 3.7 15 10.8 0 6.9-5.8 11.5-17 11.5h-6.9v-21.6zm-20.9 77.6c4.7.7 12.5 1.4 22.9 1.4 18.6 0 29.9-3 36.7-8.5 5.8-4.6 9.7-11.2 9.7-19.8 0-12.1-7.9-20.2-18.6-23v-.3c10.4-4 15.2-11.6 15.2-19.8 0-8.6-4.6-15-11.1-18.4-6.8-4-14.7-5.3-27.6-5.3-10.7 0-21.8 1-27.3 2.1v91.6zm-94.5-93v52.1c0 29.7 13.7 42.8 37.3 42.8 24.4 0 38.9-13.7 38.9-42.5v-52.4h-21.1v53.6c0 16.6-6.1 24.4-17.2 24.4-10.7 0-16.9-8.2-16.9-24.4v-53.6z" clip-path="url(#SVGID_2_)" id="path65" fill="#003056"/></g><path class="st1" id="rect69" fill="#003056" d="M26.5 73.2h22v22h-22z"/><path class="st1" id="rect71" fill="#003056" d="M74.7 73.2h22v22h-22z"/><path class="st1" id="rect73" fill="#003056" d="M2.3 49.1h22v22h-22z"/><path class="st1" id="rect75" fill="#003056" d="M2.3.8h22v22h-22z"/><path class="st1" id="rect77" fill="#003056" d="M26.5 25h22v22h-22z"/><path class="st1" id="rect79" fill="#003056" d="M74.7 25h22v22h-22z"/><path class="st1" id="rect81" fill="#003056" d="M50.6 49.1h22v22h-22z"/><path class="st1" id="rect83" fill="#003056" d="M50.6.8h22v22h-22z"/><g id="g95" transform="translate(-156 -218.4)"><defs id="defs86"><path id="SVGID_3_" d="M156 218.4h291.2v168.8H156z"/></defs><clipPath id="SVGID_4_"><use xlink:href="#SVGID_3_" id="use88" x="0" y="0" width="100%" height="100%" overflow="visible"/></clipPath><path class="st2" d="M437.4 387.2h6.3l-1.5-28.5h-8.5l-3 9.5c-1 3.2-1.9 6.9-2.7 10.2h-.2c-.6-3.3-1.5-6.9-2.4-10.2l-2.8-9.6H414l-1.8 28.5h6l.6-10.8c.2-3.6.3-8 .5-11.8h.1c.7 3.8 1.6 7.8 2.6 11.2l3 11h5l3.5-11.1c1.1-3.3 2.3-7.4 3.2-11h.1c0 4.2.1 8.3.3 11.7zm-46.5 0h6.4v-28.5h-6.4zm-15.6-17.3h-10.5V364h11.1v-5.3h-17.5v28.5h18.1v-5.3h-11.7v-6.8h10.5zm-56.1-11.2v28.5h6.4v-11.9h10.6v11.9h6.4v-28.5h-6.4v11h-10.6v-11zM286 387.2v-8.6c0-4.7-.1-8.7-.3-12.5h.2c1.4 3.3 3.3 7 5 10.1l6.1 11h6.8v-28.5h-5.9v8.3c0 4.3.1 8.2.5 11.9h-.1c-1.3-3.2-3-6.8-4.7-9.8l-5.9-10.4h-7.5v28.5zm-39.2 0v-8.6c0-4.7-.1-8.7-.3-12.5h.2c1.4 3.3 3.3 7 5 10.1l6.1 11h6.8v-28.5h-5.9v8.3c0 4.3.1 8.2.5 11.9h-.2c-1.3-3.2-3-6.8-4.7-9.8l-5.9-10.4h-7.5v28.5zm-36.1-12.1l1.7-6.1c.4-1.7.9-3.8 1.3-5.5h.1c.4 1.6.9 3.8 1.4 5.5l1.8 6.1zm7.3 4.8l2.2 7.3h6.9l-8.9-28.5h-8.4l-8.7 28.5h6.7l2-7.3zm-36 7.3h6.3l-1.5-28.5h-8.5l-3 9.5c-1 3.2-1.9 6.9-2.7 10.2h-.2c-.6-3.3-1.5-6.9-2.4-10.2l-2.8-9.6h-8.6l-1.8 28.5h6l.5-10.8c.2-3.6.3-8 .5-11.8h.1c.7 3.8 1.6 7.8 2.6 11.2l3 11h5l3.5-11.1c1.1-3.3 2.3-7.4 3.2-11h.1c0 4.2.1 8.3.3 11.7z" clip-path="url(#SVGID_4_)" id="path91" fill="#003056"/><path class="st2" d="M434.1 349.6h3v-4.4l1.1-1.4 3.3 5.9h3.6l-4.7-7.8 4.5-5.8h-3.8l-3.1 4.5-.9 1.5v-6h-3zm-5.1-8.3h-5v-2.8h5.3V336h-8.4v13.6h8.6v-2.5H424v-3.2h5zm-24.4-5.3v13.6h3.1v-5.7h5.1v5.7h3.1V336h-3.1v5.2h-5.1V336zm-10.8 13.6h3.1v-11h3.7V336h-10.4v2.6h3.7v11zm-13-2.2c-2.1 0-3.3-2-3.3-4.6 0-2.5 1.2-4.6 3.3-4.6 2.1 0 3.3 2.1 3.3 4.5 0 2.7-1.2 4.7-3.3 4.7zm-.1 2.4c4 0 6.7-2.7 6.7-7.2 0-3.8-2.3-6.9-6.5-6.9-4 0-6.6 3-6.6 7.1 0 4 2.4 7 6.4 7zm-13.9-.2h3.1V336h-3.1zm-12.8 0h8.5V347h-5.4v-11H354zm-11.5-6h1c1.5 0 2.8.5 2.8 1.9s-1.2 2-2.6 2c-.5 0-.9 0-1.2-.1zm0-5.4c.2-.1.6-.1 1.3-.1 1.4 0 2.2.5 2.2 1.6 0 1-.8 1.7-2.5 1.7h-1zm-3.1 11.3c.7.1 1.8.2 3.3.2 2.7 0 4.4-.4 5.3-1.2.8-.7 1.4-1.6 1.4-2.9 0-1.8-1.1-2.9-2.7-3.3 1.5-.6 2.2-1.7 2.2-2.9 0-1.3-.7-2.2-1.6-2.7-1-.6-2.1-.8-4-.8-1.6 0-3.2.1-4 .3v13.3zm-8.1.1h3.1V336h-3.1zm-11.6-6h1c1.5 0 2.8.5 2.8 1.9s-1.2 2-2.6 2c-.5 0-.9 0-1.2-.1zm0-5.4c.2-.1.6-.1 1.3-.1 1.4 0 2.2.5 2.2 1.6 0 1-.8 1.7-2.5 1.7h-1zm-3 11.3c.7.1 1.8.2 3.3.2 2.7 0 4.4-.4 5.3-1.2.8-.7 1.4-1.6 1.4-2.9 0-1.8-1.1-2.9-2.7-3.3 1.5-.6 2.2-1.7 2.2-2.9 0-1.3-.7-2.2-1.6-2.7-1-.6-2.1-.8-4-.8-1.6 0-3.2.1-4 .3v13.3zm-13.9-.5c.8.4 2.3.8 3.8.8 3.7 0 5.5-1.9 5.5-4.2 0-1.9-1.1-3.2-3.5-4.1-1.8-.7-2.5-1.1-2.5-1.9 0-.7.6-1.3 2-1.3 1.3 0 2.3.4 2.8.6l.7-2.5c-.8-.4-1.9-.7-3.5-.7-3.2 0-5.1 1.8-5.1 4.1 0 2 1.5 3.2 3.7 4.1 1.6.6 2.3 1.1 2.3 1.9 0 .9-.7 1.5-2.2 1.5-1.3 0-2.6-.4-3.4-.8zm-10.1.6h3.1v-11h3.7V336H289v2.6h3.7zm-10.9-14.4c.8 0 1.3-.6 1.3-1.3 0-.8-.6-1.4-1.3-1.4-.8 0-1.4.6-1.4 1.4 0 .7.6 1.3 1.4 1.3zm-4.1 0c.7 0 1.3-.6 1.3-1.3 0-.8-.6-1.4-1.3-1.4-.8 0-1.4.6-1.4 1.4 0 .7.6 1.3 1.4 1.3zm.3 8.6l.8-2.9c.2-.8.4-1.8.6-2.6.2.8.4 1.8.7 2.6l.8 2.9zm3.5 2.3l1 3.5h3.3l-4.2-13.6h-4l-4.2 13.6h3.2l1-3.5zm-17.9 3.5h3.1v-11h3.7V336H260v2.6h3.7v11zm-10.8 0h3.1V336h-3.1zm-13.9-.6c.8.4 2.3.8 3.8.8 3.7 0 5.5-1.9 5.5-4.2 0-1.9-1.1-3.2-3.5-4.1-1.8-.7-2.5-1.1-2.5-1.9 0-.7.6-1.3 2-1.3 1.3 0 2.3.4 2.8.6l.7-2.5c-.8-.4-1.9-.7-3.5-.7-3.2 0-5.1 1.8-5.1 4.1 0 2 1.5 3.2 3.7 4.1 1.6.6 2.3 1.1 2.3 1.9 0 .9-.7 1.5-2.2 1.5-1.3 0-2.6-.4-3.4-.8zm-10.8-10.7c.2-.1.6-.1 1.4-.1 1.4 0 2.3.6 2.3 1.9 0 1.2-.9 1.9-2.4 1.9h-1.2v-3.7zm-3 11.3h3v-5.4h.9c1.3 0 1.9.5 2.2 2.2.4 1.7.7 2.8.9 3.2h3.1c-.3-.5-.7-2.3-1.1-3.9-.3-1.3-.9-2.1-1.8-2.5v-.1c1.2-.4 2.4-1.6 2.4-3.3 0-1.2-.4-2.2-1.3-2.8-1-.8-2.4-1.1-4.4-1.1-1.7 0-3.1.1-4.1.3v13.4zm-5.1-8.3h-5v-2.8h5.3V336h-8.4v13.6h8.6v-2.5H215v-3.2h5zm-16.5 8.3L208 336h-3.3l-1.7 5.8c-.5 1.6-.9 3.2-1.2 4.8h-.1c-.3-1.7-.7-3.2-1.2-4.9l-1.7-5.7h-3.4l4.4 13.6zm-15 0h3.1V336h-3.1zm-13.5 0v-4.1c0-2.2 0-4.1-.1-5.9h.1c.6 1.6 1.6 3.3 2.4 4.8l2.9 5.2h3.2V336h-2.8v4c0 2.1.1 3.9.2 5.7-.6-1.5-1.4-3.2-2.2-4.7l-2.8-5h-3.6v13.6zM156 336v7.6c0 4.3 2 6.2 5.4 6.2 3.5 0 5.7-2 5.7-6.2V336H164v7.8c0 2.4-.9 3.5-2.5 3.5s-2.5-1.2-2.5-3.5V336z" clip-path="url(#SVGID_4_)" id="path93" fill="#003056"/></g></svg>
