<svg xmlns="http://www.w3.org/2000/svg" width="779.48822pt" height="129.40233pt" viewBox="0 0 779.48824 129.40233" version="1.1">
  <path style="fill:#1ce391" d="M 23.60937,69.16797 1.08203,46.64063 C 0.35937,45.91797 0,45.19531 0,44.47266 0,43.75 0.40234,43.02736 1.20703,42.30078 l 2.76953,-2.40625 c 0.80078,-0.64062 1.48437,-0.96483 2.04687,-0.96483 0.72266,0 1.44532,0.36328 2.16798,1.08203 l 21.3203,21.20703 c 1.3672,1.36328 2.41016,2.64844 3.13673,3.85156 0.71875,1.20704 1.08202,2.57421 1.08202,4.09766 0,1.4453 -0.36327,2.76953 -1.08202,3.97655 -0.72657,1.20313 -1.76953,2.48829 -3.13673,3.85158 L 8.19141,98.32032 c -0.64454,0.64454 -1.3672,0.96484 -2.16798,0.96484 -0.72265,0 -1.40625,-0.28125 -2.04687,-0.84375 L 1.20703,95.91407 C 0.40234,95.18751 0,94.46486 0,93.7422 0,92.94141 0.35937,92.25782 1.08203,91.69532 Z m 0,0" />
  <path style="fill:#f5f5f5" d="m 107.11327,99.88673 h -1.92578 c -3.3711,0 -5.74219,-1.44531 -7.10547,-4.33593 L 81.81639,63.02345 65.55467,95.5508 c -1.36718,2.89062 -3.73437,4.33593 -7.10547,4.33593 h -1.92968 c -2.01172,0 -3.09375,-1.0039 -3.25391,-3.01171 L 50.85936,42.1797 c -0.082,-0.8789 0.19531,-1.625 0.83984,-2.22656 0.64063,-0.60156 1.40625,-0.90234 2.28907,-0.90234 h 4.09765 c 0.88282,0 1.58203,0.28125 2.10938,0.84375 0.51953,0.5625 0.82031,1.32422 0.90234,2.28515 L 63.26561,80.01173 76.6367,53.26564 c 0.64454,-1.44531 1.80469,-2.16797 3.4961,-2.16797 h 3.37109 c 1.6875,0 2.85156,0.72266 3.49219,2.16797 l 13.37109,26.74609 2.16797,-37.83203 c 0.082,-0.96093 0.38281,-1.72265 0.90625,-2.28515 0.52344,-0.5625 1.22266,-0.84375 2.10938,-0.84375 h 4.09765 c 0.87891,0 1.625,0.30078 2.22657,0.90234 0.60156,0.60156 0.90234,1.34766 0.90234,2.22656 l -2.41016,54.69532 c 0,2.00781 -1.08593,3.01171 -3.2539,3.01171" />
  <path style="fill:#f5f5f5" d="m 143.19921,50.85548 c -2.73047,2.57421 -4.29688,6.10546 -4.69532,10.60156 h 27.34375 c 0,-3.05078 -0.68359,-5.66016 -2.04687,-7.83203 -1.36719,-2.16797 -3.07422,-3.8125 -5.12109,-4.9375 -2.04688,-1.125 -4.15625,-1.6875 -6.32422,-1.6875 -3.3711,0 -6.42578,1.28515 -9.15625,3.85547 m 33.37109,43.49218 c 0,1.20313 -0.64453,2.04688 -1.92969,2.52735 -5.62109,2.41015 -11.64453,3.61328 -18.0664,3.61328 -8.4336,0 -15.42188,-2.54688 -20.96485,-7.64844 -5.53906,-5.09766 -8.30859,-12.98828 -8.30859,-23.67187 0,-6.50391 1.12109,-12.125 3.37109,-16.86719 2.2461,-4.73828 5.25782,-8.32813 9.03516,-10.78125 3.77344,-2.44922 7.95312,-3.67578 12.53125,-3.67578 4.17187,0 8.08984,1.0664 11.74609,3.19531 3.64844,2.12891 6.58203,5.23828 8.79297,9.33594 2.20703,4.09765 3.3125,8.95703 3.3125,14.57422 v 2.77343 c 0,2.00782 -1.00781,3.01172 -3.01172,3.01172 h -35.41797 c 0.24219,7.06641 2.1836,12.22656 5.84375,15.48047 3.65235,3.25 8.16797,4.87891 13.55079,4.87891 4.17578,0 8.87109,-0.92188 14.09375,-2.77344 0.32031,-0.15625 0.76562,-0.23828 1.32421,-0.23828 1.20704,0 2.05079,0.64453 2.53125,1.92578 l 1.20313,2.89062 c 0.24219,0.48438 0.36328,0.96485 0.36328,1.44922" />
  <path style="fill:#f5f5f5" d="m 206.30078,77.35939 c -2.60936,1.60937 -3.91407,3.57422 -3.91407,5.90234 0,2.33203 1.32423,4.27735 3.97657,5.84375 2.65235,1.56641 6.46485,2.34766 11.44531,2.34766 2.24609,0 6.01954,-0.23828 11.32422,-0.72266 V 74.94923 h -11.6875 c -4.8164,0 -8.53515,0.80469 -11.14452,2.41016 m 30.17968,21.68359 c -7.94921,0.96485 -14.41796,1.44532 -19.39453,1.44532 -5.22265,0 -9.74218,-0.78125 -13.55468,-2.34766 -3.81642,-1.56641 -6.6836,-3.67578 -8.61329,-6.32422 -1.92578,-2.65234 -2.89063,-5.54297 -2.89063,-8.67187 0,-3.13282 0.96485,-6.02735 2.89063,-8.67579 1.92969,-2.65234 4.81641,-4.77734 8.67579,-6.38281 3.85546,-1.60937 8.46875,-2.41404 13.85156,-2.41404 h 11.6875 V 60.8555 c 0,-5.05859 -1.32813,-8.65234 -3.97656,-10.78125 -2.64844,-2.12892 -6.58594,-3.19531 -11.80469,-3.19531 -3.29688,0 -6.94923,0.40625 -10.96485,1.20703 -0.24218,0.082 -0.5625,0.1211 -0.96093,0.1211 -1.52735,0 -2.41016,-0.76563 -2.65235,-2.28907 l -0.35938,-3.25392 v -0.72266 c 0,-0.80078 0.1797,-1.42578 0.53907,-1.86719 0.35938,-0.4375 0.94531,-0.74218 1.74608,-0.90234 5.22267,-1.04297 10.20313,-1.56641 14.9375,-1.56641 7.79298,0 13.69532,1.84766 17.71095,5.53907 4.01562,3.69921 6.02343,9.59765 6.02343,17.71093 v 34.9336 c 0,1.92968 -0.96483,3.01562 -2.89063,3.2539" />
  <path style="fill:#f5f5f5" d="m 294.33984,48.08595 c -4.57813,-0.72266 -8.19141,-1.08594 -10.84375,-1.08594 -4.01563,0 -7.39063,0.66407 -10.11719,1.98828 -2.73437,1.32422 -4.09766,3.19532 -4.09766,5.60157 0,2.08984 1.08594,3.9375 3.25391,5.54297 2.16797,1.60546 5.17969,2.64843 9.03125,3.13281 7.14844,0.88281 12.47266,2.97265 15.96484,6.26172 3.49219,3.29687 5.23829,7.35156 5.23829,12.16797 0,5.625 -2.20704,10.16015 -6.625,13.61328 -4.41797,3.45312 -10.64063,5.17968 -18.67188,5.17968 -5.37891,0 -10.80078,-0.4414 -16.26172,-1.32421 -1.6875,-0.24219 -2.53125,-1.125 -2.53125,-2.64844 0,-0.40235 0.0391,-0.72656 0.1211,-0.96485 l 0.72265,-3.13281 c 0.32031,-1.84765 1.48438,-2.64844 3.4961,-2.41015 4.65625,0.80468 9.47265,1.20703 14.45312,1.20703 4.82031,0 8.53125,-0.88282 11.14453,-2.65235 2.60938,-1.76562 3.91406,-4.05468 3.91406,-6.86718 0,-2.32813 -0.98437,-4.33594 -2.95312,-6.01954 -1.96875,-1.6914 -5.03906,-2.73046 -9.21484,-3.13671 -6.66797,-0.64063 -11.88672,-2.62891 -15.66016,-5.96094 -3.77344,-3.33203 -5.66016,-7.32813 -5.66016,-11.98828 0,-4.89844 2.04688,-8.91407 6.14453,-12.04688 4.09375,-3.13281 9.79688,-4.69922 17.10547,-4.69922 4.73828,0 9.47657,0.44532 14.21485,1.32813 1.60547,0.23828 2.41015,1.125 2.41015,2.64844 0,0.40625 -0.043,0.72265 -0.12109,0.96484 l -0.84375,3.13281 c -0.48047,1.76563 -1.6875,2.48828 -3.61328,2.16797" />
  <path style="fill:#f5f5f5" d="m 370.66015,39.71095 c 0.48047,0.44531 0.72266,1.02734 0.72266,1.75 0,0.40234 -0.043,0.72265 -0.1211,0.96094 l -14.9375,59.27343 c -2.49218,9.79688 -5.78125,16.86328 -9.875,21.20313 -4.10156,4.33594 -9.64062,6.5039 -16.6289,6.5039 -4.33594,0 -9.23438,-0.96484 -14.69532,-2.89062 -1.36718,-0.48047 -2.05078,-1.36719 -2.05078,-2.65234 0,-0.16016 0.082,-0.5625 0.24219,-1.20313 l 1.08594,-3.01172 c 0.48047,-1.36719 1.32422,-2.04687 2.52734,-2.04687 0.5625,0 1.00391,0.0781 1.32422,0.23828 1.76953,0.64453 3.75781,1.14453 5.96484,1.50781 2.21094,0.35938 4.07422,0.54297 5.60157,0.54297 4.17578,0 7.55078,-1.52734 10.12109,-4.57813 2.57031,-3.05468 4.69922,-7.99218 6.38281,-14.82031 l -1.5664,0 c -3.9336,0 -7.16797,-0.92187 -9.69532,-2.76953 -2.53125,-1.84766 -4.23828,-4.53516 -5.12109,-8.07031 L 318.13671,42.42189 c -0.082,-0.23829 -0.12109,-0.5586 -0.12109,-0.96094 0,-1.60547 0.92187,-2.41016 2.76953,-2.41016 h 4.33984 c 1.84375,0 2.92969,0.84375 3.25,2.53125 l 11.6836,46.5 c 0.24219,1.125 0.76562,2.00781 1.57031,2.64844 0.80078,0.64453 1.84375,0.96484 3.12891,0.96484 l 3.73437,0 12.53125,-50.11328 c 0.48047,-1.6875 1.60547,-2.53125 3.375,-2.53125 h 4.33594 c 0.80078,0 1.44531,0.22266 1.92578,0.66016" />
  <path style="fill:#f5f5f5" d="m 406.55467,91.57422 c 6.01954,0 10.88282,-1.70312 14.57422,-5.12108 3.69532,-3.41017 5.54297,-9.17188 5.54297,-17.28517 0,-7.71094 -1.70703,-13.28906 -5.12109,-16.74608 -3.41406,-3.44923 -8.01172,-5.17969 -13.79297,-5.17969 -3.05469,0 -6.14453,0.35938 -9.27734,1.08594 v 42.40233 c 3.05078,0.5625 5.74218,0.84375 8.07421,0.84375 M 389.80858,41.33985 c 5.78125,-2.32813 11.76563,-3.4961 17.94923,-3.4961 8.43358,0 15.42187,2.55077 20.96094,7.65235 5.54297,5.10156 8.3125,12.99218 8.3125,23.67187 0,10.68361 -2.76953,18.57423 -8.3125,23.67188 -5.53907,5.10156 -12.52736,7.64843 -20.96094,7.64843 -2.97267,0 -6.06642,-0.32031 -9.27734,-0.96093 v 26.86328 c 0,2.00781 -1.00391,3.01172 -3.01172,3.01172 h -4.21486 c -2.00781,0 -3.01172,-1.00391 -3.01172,-3.01172 V 43.86719 c 0,-1.20313 0.52344,-2.04688 1.56641,-2.52734" />
  <path style="fill:#f5f5f5" d="m 457.96093,39.29298 c 6.42578,-0.96485 13.25391,-1.44922 20.48047,-1.44922 6.34375,0 11.34375,0.64453 15,1.92969 3.65234,1.28515 6.32422,3.33203 8.01172,6.14453 1.68359,2.8125 2.52734,6.625 2.52734,11.44531 0,2.00781 -1.0039,3.01172 -3.01172,3.01172 h -4.21484 c -2.00781,0 -3.01562,-1.00391 -3.01562,-3.01172 0,-3.77344 -1.16016,-6.44531 -3.48829,-8.01172 -2.33203,-1.56641 -6.26953,-2.35156 -11.80859,-2.35156 -3.85156,0 -8.19141,0.16406 -13.00781,0.48437 v 48.78907 c 0,2.00781 -1.00781,3.01171 -3.01172,3.01171 h -4.21875 c -2.01172,0 -3.01172,-1.0039 -3.01172,-3.01171 V 42.54298 c 0,-1.76563 0.92188,-2.84766 2.76953,-3.25" />
  <path style="fill:#f5f5f5" d="m 544.73827,10.73829 v 7.95313 c 0,2.00781 -1.0039,3.01172 -3.01562,3.01172 h -7.82422 c -2.01172,0 -3.01563,-1.00391 -3.01563,-3.01172 v -7.95313 c 0,-2.0039 1.00391,-3.01172 3.01563,-3.01172 h 7.82422 c 2.01172,0 3.01562,1.00782 3.01562,3.01172 m 19.27344,82.28125 v 3.25391 c 0,2.00781 -1.00391,3.01172 -3.00781,3.01172 h -42.76953 c -2.00782,0 -3.01172,-1.00391 -3.01172,-3.01172 v -3.25391 c 0,-2.0039 1.0039,-3.01172 3.01172,-3.01172 h 16.26562 V 48.20704 h -12.28906 c -2.01172,0 -3.01172,-1.0039 -3.01172,-3.01172 v -3.13281 c 0,-2.00781 1,-3.01172 3.01172,-3.01172 h 19.51172 c 2.01172,0 3.01562,1.00391 3.01562,3.01172 v 47.94531 h 16.26563 c 2.0039,0 3.00781,1.00782 3.00781,3.01172" />
  <path style="fill:#f5f5f5" d="m 582.78515,39.29296 c 6.42577,-0.96484 13.2539,-1.44921 20.47656,-1.44921 9,0 15.50391,1.86719 19.51954,5.60546 4.01562,3.73048 6.02342,9.98048 6.02342,18.73048 v 34.09375 c 0,2.00781 -1.00389,3.01172 -3.01171,3.01172 h -4.21875 c -2.00781,0 -3.01171,-1.00391 -3.01171,-3.01172 V 62.17969 c 0,-5.62111 -1.16408,-9.55469 -3.49219,-11.80469 -2.33203,-2.25 -6.26563,-3.375 -11.8086,-3.375 -3.85156,0 -8.1875,0.16406 -13.00781,0.48437 v 48.78907 c 0,2.00781 -1.0039,3.01172 -3.01173,3.01172 h -4.21483 c -2.01172,0 -3.01172,-1.00391 -3.01172,-3.01172 V 42.54297 c 0,-1.76563 0.92187,-2.84766 2.76951,-3.25" />
  <path style="fill:#f5f5f5" d="m 693.54687,95.67188 c 0,1.125 -0.68358,1.92578 -2.04687,2.41015 -4.41796,1.60547 -8.63671,2.41016 -12.64843,2.41016 -6.4297,0 -11.6875,-2.05078 -15.78125,-6.14453 C 658.97266,90.25 656.92579,83.70703 656.92579,74.71094 V 48.20703 h -9.15625 c -2.00781,0 -3.01172,-1.0039 -3.01172,-3.01171 V 42.0625 c 0,-2.00781 1.00391,-3.01172 3.01172,-3.01172 h 9.15625 V 22.78907 c 0,-2.00782 1,-3.01563 3.01171,-3.01563 h 4.21485 c 2.00781,0 3.01172,1.00781 3.01172,3.01563 v 16.26171 h 19.7578 c 2.00782,0 3.01173,1.00391 3.01173,3.01172 v 3.13282 c 0,2.00781 -1.00391,3.01171 -3.01173,3.01171 h -19.7578 v 26.50391 c 0,6.10156 1.00391,10.35937 3.01172,12.76953 2.00781,2.41016 4.89844,3.61327 8.67578,3.61327 2.96875,0 5.98047,-0.55858 9.03125,-1.6875 0.3203,-0.16014 0.80468,-0.24219 1.44922,-0.24219 1.12108,0 1.96483,0.64455 2.52733,1.92969 l 1.32813,3.13281 c 0.23829,0.48048 0.35937,0.96094 0.35937,1.44532" />
  <path style="fill:#1ce391" d="m 777.46874,1e-5 h -64.75 c -1.11718,0 -2.01953,0.90234 -2.01953,2.01953 v 125.02734 c 0,1.11328 0.90235,2.01953 2.01953,2.01953 h 64.75 c 1.11719,0 2.01953,-0.90625 2.01953,-2.01953 V 2.01954 c 0,-1.11719 -0.90234,-2.01953 -2.01953,-2.01953" />
</svg>
